<?xml version="1.0" encoding="UTF-8"?><svg id="a" xmlns="http://www.w3.org/2000/svg" viewBox="0 0 890.33 168.03"><defs><style>.b{fill:#ce260b;}</style></defs><path class="b" d="M0,22.65l2.45-3.29c.64,.51,1.26,.89,1.86,1.12,.6,.23,1.27,.35,2.01,.35,1.11,0,1.96-.31,2.54-.94,.58-.63,.87-1.52,.87-2.66V1.85h4.83v15.47c0,1.94-.4,3.48-1.19,4.62-.79,1.14-1.77,1.94-2.94,2.4-1.17,.46-2.38,.68-3.64,.68-2.71,0-4.97-.79-6.79-2.38Z"/><path class="b" d="M32.76,17.68h-10.08c.14,1.31,.57,2.27,1.29,2.89,.72,.62,1.59,.93,2.59,.93,.75,0,1.47-.1,2.17-.31,.7-.21,1.45-.55,2.24-1.02l1.61,2.87c-.84,.63-1.81,1.12-2.91,1.47-1.1,.35-2.29,.53-3.57,.53-1.54,0-2.92-.28-4.15-.84s-2.21-1.45-2.94-2.68c-.74-1.23-1.1-2.81-1.1-4.74,0-1.77,.31-3.3,.93-4.58,.62-1.28,1.52-2.26,2.7-2.92,1.18-.67,2.57-1,4.18-1s2.85,.3,3.94,.91c1.08,.61,1.9,1.44,2.43,2.49,.54,1.05,.81,2.24,.81,3.57,0,.47-.05,1.28-.14,2.45Zm-8.95-5.44c-.48,.5-.81,1.29-.99,2.36h5.35v-.1c0-1.07-.22-1.84-.67-2.31-.45-.47-1.04-.7-1.79-.7-.79,0-1.42,.25-1.9,.75Z"/><path class="b" d="M46.59,23.87c-1.37,.77-2.91,1.16-4.6,1.16-.86,0-1.66-.17-2.39-.51s-1.33-.88-1.8-1.63c-.46-.75-.7-1.69-.7-2.83v-7.52h-2.87v-3.75h2.87v-3.54l4.73-.67v4.2h4.38l-.49,3.75h-3.88v6.79c0,.7,.12,1.19,.37,1.47,.25,.28,.59,.42,1.03,.42,.33,0,.64-.04,.94-.12,.3-.08,.68-.22,1.12-.4l1.29,3.19Z"/><path class="b" d="M71.62,9.47c.78,.8,1.18,1.97,1.18,3.48v11.58h-4.73V14.39c0-.93-.14-1.59-.41-1.98-.27-.39-.73-.58-1.37-.58-.85,0-1.87,.34-3.05,1.02v11.69h-4.73V14.39c0-.93-.14-1.59-.41-1.98-.27-.39-.72-.58-1.36-.58-.92,0-1.94,.34-3.07,1.02v11.69h-4.73V8.89l4.73-.46v1.37c1.61-1.03,3.28-1.54,5-1.54s3.04,.58,3.81,1.75c.94-.56,1.87-.99,2.81-1.29,.94-.3,1.91-.46,2.92-.46,1.47,0,2.6,.4,3.39,1.21Z"/><path class="b" d="M88.57,9.47c1.04,.8,1.56,2.13,1.56,3.97v11.1h-4.03l-.38-1.23c-.87,.63-1.73,1.07-2.58,1.33s-1.75,.39-2.69,.39c-.98,0-1.85-.19-2.6-.56-.75-.37-1.33-.89-1.74-1.56-.41-.67-.61-1.43-.61-2.29,0-1.84,.91-3.25,2.74-4.22,1.83-.97,4.21-1.51,7.17-1.63v-.38c0-.65-.06-1.17-.19-1.54-.13-.37-.36-.65-.69-.82-.33-.17-.79-.26-1.37-.26-1.48,0-3.15,.59-5.02,1.78l-1.83-2.87c1.26-.82,2.49-1.42,3.69-1.82,1.2-.4,2.51-.59,3.94-.59,2.05,0,3.6,.4,4.64,1.21Zm-7.71,11.73c.31,.27,.76,.4,1.35,.4,.97,0,2.04-.31,3.19-.94v-3.05c-1.73,.09-2.99,.36-3.8,.81-.81,.44-1.21,.98-1.21,1.61,0,.51,.15,.9,.46,1.17Z"/><path class="b" d="M107.87,9.47c.82,.8,1.23,1.98,1.23,3.52v11.55h-4.73V14.39c0-.65-.06-1.16-.19-1.52-.13-.36-.35-.62-.66-.79-.31-.16-.75-.25-1.31-.25-.95,0-2.06,.37-3.33,1.12v11.58h-4.73V8.89l4.73-.46v1.54c.87-.54,1.74-.96,2.62-1.26,.88-.3,1.79-.46,2.72-.46,1.62,0,2.83,.4,3.65,1.21Z"/><path class="b" d="M138.07,4.43c2.17,1.71,3.25,4.64,3.25,8.77,0,2.52-.57,4.63-1.71,6.33-1.14,1.7-2.67,2.96-4.57,3.78-1.9,.82-4,1.23-6.28,1.23h-7.39V1.85h7.56c3.92,0,6.96,.86,9.14,2.57Zm-5.47,15.26c1.19-.38,2.09-1.09,2.7-2.12s.91-2.49,.91-4.38c0-1.75-.27-3.14-.82-4.17-.55-1.03-1.36-1.77-2.43-2.22s-2.42-.68-4.06-.68h-2.7v14.14h1.61c2,0,3.59-.19,4.79-.58Z"/><path class="b" d="M159.46,8.44V24.54h-4.03l-.38-1.26c-1.8,1.17-3.65,1.75-5.55,1.75-1.57,0-2.78-.43-3.63-1.3-.85-.86-1.28-2.05-1.28-3.57V8.89l4.73-.46v10.33c0,.93,.15,1.6,.46,2.01,.31,.41,.86,.61,1.67,.61,.85,0,1.95-.36,3.3-1.08V8.89l4.72-.46Z"/><path class="b" d="M177.96,10.29c1.03,1.35,1.55,3.4,1.55,6.12,0,2.1-.44,3.79-1.31,5.08s-2,2.19-3.38,2.73c-1.38,.54-2.88,.81-4.52,.81-.84,0-1.85-.07-3.04-.21-1.19-.14-2.39-.37-3.6-.7V.46l4.73-.46V9.7c1.6-.96,3.21-1.44,4.82-1.44,2.14,0,3.72,.68,4.76,2.03Zm-4.57,9.96c.81-.85,1.22-2.15,1.22-3.9,0-1.12-.09-2.01-.28-2.66-.19-.65-.5-1.13-.94-1.42-.44-.29-1.03-.44-1.79-.44-.92,0-1.99,.31-3.22,.95v8.61c.47,.09,1.01,.14,1.63,.14,1.44,0,2.57-.43,3.38-1.28Z"/><path class="b" d="M194.48,9.47c1.04,.8,1.56,2.13,1.56,3.97v11.1h-4.03l-.38-1.23c-.87,.63-1.73,1.07-2.58,1.33s-1.75,.39-2.69,.39c-.98,0-1.85-.19-2.6-.56-.75-.37-1.33-.89-1.74-1.56-.41-.67-.61-1.43-.61-2.29,0-1.84,.91-3.25,2.74-4.22,1.83-.97,4.21-1.51,7.17-1.63v-.38c0-.65-.06-1.17-.19-1.54-.13-.37-.36-.65-.69-.82-.33-.17-.79-.26-1.37-.26-1.48,0-3.15,.59-5.02,1.78l-1.83-2.87c1.26-.82,2.49-1.42,3.69-1.82,1.2-.4,2.51-.59,3.94-.59,2.05,0,3.6,.4,4.64,1.21Zm-7.71,11.73c.31,.27,.76,.4,1.35,.4,.97,0,2.04-.31,3.19-.94v-3.05c-1.73,.09-2.99,.36-3.8,.81-.81,.44-1.21,.98-1.21,1.61,0,.51,.15,.9,.46,1.17Z"/><path class="b" d="M200.86,6.04c-.47-.27-.84-.62-1.12-1.07-.28-.44-.42-.93-.42-1.47s.14-1.03,.42-1.49c.28-.46,.65-.82,1.12-1.08,.47-.27,.97-.4,1.51-.4s1.08,.13,1.56,.4c.48,.27,.86,.63,1.14,1.08s.42,.95,.42,1.49-.14,1.03-.42,1.47c-.28,.44-.66,.8-1.14,1.07-.48,.27-1,.4-1.56,.4s-1.04-.13-1.51-.4Zm-.77,18.5V8.89l4.73-.46V24.54h-4.73Z"/><path d="M.14,58l1.39-2c.56,.43,1.13,.75,1.7,.97s1.21,.33,1.93,.33c1.04,0,1.84-.32,2.38-.96,.54-.64,.81-1.53,.81-2.67v-13.14h2.67v13.22c0,1.41-.26,2.56-.77,3.44s-1.2,1.51-2.06,1.9c-.86,.39-1.82,.58-2.89,.58-1.99,0-3.71-.56-5.16-1.68Z"/><path d="M25.54,53.42h-8.84c.02,1.45,.37,2.5,1.06,3.16,.69,.66,1.57,.99,2.65,.99,.77,0,1.44-.1,2.02-.29,.57-.19,1.2-.49,1.9-.9l.96,1.77c-1.59,1.02-3.25,1.54-4.99,1.54-1.86,0-3.34-.52-4.45-1.55-1.11-1.03-1.67-2.67-1.67-4.92,0-1.28,.23-2.44,.7-3.48s1.16-1.88,2.07-2.51c.92-.63,2.04-.94,3.38-.94,1.12,0,2.08,.23,2.87,.68,.79,.45,1.39,1.08,1.8,1.87,.41,.79,.61,1.7,.61,2.73l-.06,1.86Zm-7.58-4.29c-.57,.6-.94,1.42-1.12,2.46h6.32v-.12c0-1.08-.25-1.89-.74-2.44-.49-.54-1.19-.81-2.1-.81-1.01,0-1.79,.3-2.36,.9Z"/><path d="M36.36,58.87c-1.01,.54-2.07,.81-3.19,.81-1.2,0-2.15-.34-2.84-1.03-.7-.69-1.04-1.72-1.04-3.09v-6.96h-2.55v-1.97h2.55v-2.87l2.49-.41v3.28h4.29l-.26,1.97h-4.03v6.55c0,1.62,.6,2.44,1.8,2.44,.35,0,.69-.04,1.02-.12,.33-.08,.69-.2,1.07-.38l.7,1.77Z"/><path d="M56.28,47.21c.66,.62,.99,1.62,.99,3.02v9.11h-2.49v-8.09c0-.72-.07-1.27-.2-1.67-.14-.4-.35-.68-.64-.86-.29-.17-.7-.26-1.22-.26-.56,0-1.15,.08-1.77,.25-.62,.16-1.2,.38-1.74,.65,.04,.39,.06,.68,.06,.87v9.11h-2.49v-8.09c0-.72-.06-1.27-.19-1.67-.13-.4-.33-.68-.62-.86-.29-.17-.7-.26-1.22-.26s-1.11,.08-1.71,.25c-.6,.16-1.17,.37-1.71,.62v10h-2.49v-12.7l2.49-.29v1.22c1.49-.85,2.94-1.28,4.35-1.28s2.44,.47,3.02,1.42c.7-.41,1.48-.74,2.36-1.02,.88-.27,1.74-.41,2.6-.41,1.1,0,1.98,.31,2.64,.93Z"/><path d="M69.73,47.3c.74,.68,1.12,1.74,1.12,3.19v8.85h-2.26l-.15-1.1c-1.33,.97-2.87,1.45-4.61,1.45-.73,0-1.39-.14-1.97-.42-.58-.28-1.03-.68-1.35-1.19-.32-.51-.48-1.1-.48-1.75,0-1.06,.38-1.95,1.13-2.65,.75-.71,1.76-1.22,3.02-1.55,1.26-.33,2.65-.51,4.18-.55v-.64c0-.87-.17-1.5-.52-1.9-.35-.4-.94-.59-1.77-.59-1.41,0-2.88,.5-4.41,1.51l-1.1-1.74c1.86-1.28,3.8-1.91,5.83-1.91,1.49,0,2.6,.34,3.35,1.01Zm-6.58,9.89c.3,.25,.75,.38,1.35,.38,1.31,0,2.6-.39,3.86-1.16v-3.02c-1.68,.08-3.04,.34-4.09,.78-1.04,.45-1.57,1.07-1.57,1.89,0,.5,.15,.88,.45,1.13Z"/><path d="M85.78,50.32v9.02h-2.49v-8.09c0-.72-.07-1.27-.22-1.67-.15-.4-.39-.68-.73-.86-.34-.17-.8-.26-1.38-.26s-1.2,.08-1.86,.25c-.66,.16-1.28,.38-1.86,.65v9.98h-2.49v-12.7l2.49-.29v1.22c1.62-.85,3.17-1.28,4.64-1.28,2.59,0,3.89,1.34,3.89,4.03Z"/><path d="M109.98,42.78c1.69,1.49,2.54,3.88,2.54,7.16,0,2.11-.43,3.86-1.29,5.26-.86,1.4-2.06,2.44-3.61,3.12-1.55,.68-3.36,1.02-5.45,1.02h-5.16v-18.79h5.66c3.19,0,5.63,.74,7.32,2.23Zm-3.87,13.69c1.14-.41,2.03-1.13,2.67-2.17,.64-1.04,.96-2.49,.96-4.35,0-2.46-.57-4.26-1.71-5.41-1.14-1.15-2.91-1.73-5.31-1.73h-3.04v14.27h2.18c1.7,0,3.12-.2,4.26-.61Z"/><path d="M126.61,46.34v12.99h-2.23l-.15-.96c-1.49,.87-3,1.31-4.52,1.31-1.18,0-2.14-.33-2.89-1-.74-.67-1.12-1.68-1.12-3.03v-9.02l2.49-.29v8.58c0,.64,.08,1.15,.23,1.52,.15,.38,.41,.65,.75,.81,.35,.16,.83,.25,1.45,.25,.93,0,2.09-.36,3.48-1.07v-9.8l2.49-.29Z"/><path d="M140.24,47.11c.75,.55,1.31,1.31,1.68,2.26,.37,.96,.55,2.03,.55,3.23,0,1.68-.36,3.05-1.09,4.1-.73,1.05-1.64,1.81-2.74,2.28-1.1,.46-2.24,.7-3.42,.7-1.3,0-2.81-.28-4.55-.84v-19.46l2.49-.29v8.32c1.37-.75,2.79-1.13,4.26-1.13,1.12,0,2.06,.28,2.81,.83Zm-1.74,9.34c.87-.78,1.31-2.08,1.31-3.9,0-1.31-.25-2.33-.75-3.04-.5-.71-1.28-1.07-2.32-1.07-1.14,0-2.33,.28-3.57,.84v8.12c.73,.15,1.39,.23,1.97,.23,1.37,0,2.49-.39,3.36-1.17Z"/><path d="M154.06,47.3c.74,.68,1.12,1.74,1.12,3.19v8.85h-2.26l-.15-1.1c-1.33,.97-2.87,1.45-4.61,1.45-.73,0-1.39-.14-1.97-.42-.58-.28-1.03-.68-1.35-1.19-.32-.51-.48-1.1-.48-1.75,0-1.06,.38-1.95,1.13-2.65,.75-.71,1.76-1.22,3.02-1.55,1.26-.33,2.65-.51,4.18-.55v-.64c0-.87-.17-1.5-.52-1.9-.35-.4-.94-.59-1.77-.59-1.41,0-2.88,.5-4.41,1.51l-1.1-1.74c1.86-1.28,3.8-1.91,5.83-1.91,1.49,0,2.6,.34,3.35,1.01Zm-6.58,9.89c.3,.25,.75,.38,1.35,.38,1.31,0,2.6-.39,3.86-1.16v-3.02c-1.68,.08-3.04,.34-4.09,.78-1.04,.45-1.57,1.07-1.57,1.89,0,.5,.15,.88,.45,1.13Z"/><path d="M159.44,43.81c-.27-.16-.49-.38-.65-.65-.16-.27-.25-.56-.25-.87,0-.33,.08-.63,.25-.9,.16-.27,.38-.49,.65-.65,.27-.16,.56-.25,.87-.25,.33,0,.63,.08,.9,.25,.27,.16,.49,.38,.65,.65,.16,.27,.25,.57,.25,.9,0,.31-.08,.6-.25,.87-.16,.27-.38,.49-.65,.65-.27,.16-.57,.25-.9,.25-.31,0-.6-.08-.87-.25Zm-.35,15.53v-12.7l2.49-.29v12.99h-2.49Z"/><path d="M164.39,62.84c.91-1.26,1.36-2.2,1.36-2.84,0-.17-.04-.31-.13-.42-.09-.11-.22-.23-.39-.36-.25-.19-.44-.38-.57-.57-.13-.18-.19-.47-.19-.86,0-.5,.18-.93,.54-1.29,.36-.36,.8-.54,1.32-.54s.94,.19,1.3,.57,.55,.92,.55,1.64c0,1.64-.79,3.46-2.38,5.45l-1.42-.78Z"/><path d="M181.95,42.01c-.36,.47-.54,1.15-.54,2.02v2.61h3.94l-.26,1.97h-3.68v10.73h-2.49v-10.73h-2.32v-1.97h2.32v-2.55c0-.97,.18-1.82,.55-2.55,.37-.73,.89-1.3,1.58-1.71,.69-.41,1.49-.61,2.42-.61,1.06,0,2.04,.16,2.93,.49l-.64,1.97c-.72-.25-1.44-.38-2.18-.38s-1.28,.24-1.64,.71Z"/><path d="M188.67,58.8c-.91-.59-1.59-1.39-2.03-2.41-.45-1.02-.67-2.16-.67-3.44,0-1.55,.29-2.82,.87-3.81,.58-1,1.36-1.72,2.35-2.18,.99-.45,2.11-.68,3.36-.68,1.35,0,2.48,.29,3.39,.88,.91,.59,1.58,1.39,2.03,2.39,.44,1.01,.67,2.15,.67,3.42,0,1.57-.29,2.85-.87,3.84s-1.36,1.72-2.35,2.17c-.99,.45-2.11,.68-3.36,.68-1.35,0-2.48-.29-3.39-.88Zm7.37-5.84c0-1.41-.3-2.54-.91-3.38-.61-.84-1.52-1.26-2.74-1.26-1.35,0-2.32,.41-2.91,1.23-.59,.82-.88,1.96-.88,3.41s.31,2.57,.93,3.42c.62,.85,1.55,1.28,2.78,1.28,2.49,0,3.74-1.57,3.74-4.7Z"/><path d="M212.45,46.34v12.99h-2.23l-.15-.96c-1.49,.87-3,1.31-4.52,1.31-1.18,0-2.14-.33-2.89-1-.74-.67-1.12-1.68-1.12-3.03v-9.02l2.49-.29v8.58c0,.64,.08,1.15,.23,1.52,.15,.38,.41,.65,.75,.81,.35,.16,.83,.25,1.45,.25,.93,0,2.09-.36,3.48-1.07v-9.8l2.49-.29Z"/><path d="M227.53,50.32v9.02h-2.49v-8.09c0-.72-.07-1.27-.22-1.67-.15-.4-.39-.68-.73-.86-.34-.17-.8-.26-1.38-.26s-1.2,.08-1.86,.25c-.66,.16-1.28,.38-1.86,.65v9.98h-2.49v-12.7l2.49-.29v1.22c1.62-.85,3.17-1.28,4.64-1.28,2.59,0,3.89,1.34,3.89,4.03Z"/><path d="M242.23,39.09v20.24h-2.26l-.12-.93c-.7,.41-1.4,.72-2.12,.94-.72,.22-1.38,.33-2,.33-1.12,0-2.08-.26-2.87-.77-.79-.51-1.4-1.25-1.81-2.2-.42-.96-.62-2.08-.62-3.38,0-1.47,.28-2.74,.86-3.8,.57-1.06,1.35-1.87,2.33-2.42,.99-.55,2.11-.83,3.36-.83,.83,0,1.75,.13,2.76,.38v-7.28l2.49-.29Zm-8.26,17.4c.58,.7,1.4,1.04,2.46,1.04,1.12,0,2.22-.32,3.31-.96v-7.89c-.87-.29-1.72-.44-2.55-.44s-1.49,.18-2.1,.54c-.61,.36-1.09,.91-1.45,1.67-.36,.75-.54,1.69-.54,2.81,0,1.45,.29,2.52,.87,3.22Z"/><path d="M256.64,53.42h-8.84c.02,1.45,.37,2.5,1.06,3.16,.69,.66,1.57,.99,2.65,.99,.77,0,1.44-.1,2.02-.29,.57-.19,1.2-.49,1.9-.9l.96,1.77c-1.59,1.02-3.25,1.54-4.99,1.54-1.86,0-3.34-.52-4.45-1.55-1.11-1.03-1.67-2.67-1.67-4.92,0-1.28,.23-2.44,.7-3.48s1.16-1.88,2.07-2.51c.92-.63,2.04-.94,3.38-.94,1.12,0,2.08,.23,2.87,.68,.79,.45,1.39,1.08,1.8,1.87,.41,.79,.61,1.7,.61,2.73l-.06,1.86Zm-7.58-4.29c-.57,.6-.94,1.42-1.12,2.46h6.32v-.12c0-1.08-.25-1.89-.74-2.44-.49-.54-1.19-.81-2.1-.81-1.01,0-1.79,.3-2.36,.9Z"/><path d="M270.53,39.09v20.24h-2.26l-.12-.93c-.7,.41-1.4,.72-2.12,.94-.72,.22-1.38,.33-2,.33-1.12,0-2.08-.26-2.87-.77-.79-.51-1.4-1.25-1.81-2.2-.42-.96-.62-2.08-.62-3.38,0-1.47,.28-2.74,.86-3.8,.57-1.06,1.35-1.87,2.33-2.42,.99-.55,2.11-.83,3.36-.83,.83,0,1.75,.13,2.76,.38v-7.28l2.49-.29Zm-8.26,17.4c.58,.7,1.4,1.04,2.46,1.04,1.12,0,2.22-.32,3.31-.96v-7.89c-.87-.29-1.72-.44-2.55-.44s-1.49,.18-2.1,.54c-.61,.36-1.09,.91-1.45,1.67-.36,.75-.54,1.69-.54,2.81,0,1.45,.29,2.52,.87,3.22Z"/><path d="M291.12,47.11c.75,.55,1.31,1.31,1.68,2.26,.37,.96,.55,2.03,.55,3.23,0,1.68-.36,3.05-1.09,4.1-.73,1.05-1.64,1.81-2.74,2.28-1.1,.46-2.24,.7-3.42,.7-1.3,0-2.81-.28-4.55-.84v-19.46l2.49-.29v8.32c1.37-.75,2.79-1.13,4.26-1.13,1.12,0,2.06,.28,2.81,.83Zm-1.74,9.34c.87-.78,1.31-2.08,1.31-3.9,0-1.31-.25-2.33-.75-3.04-.5-.71-1.28-1.07-2.32-1.07-1.14,0-2.33,.28-3.57,.84v8.12c.73,.15,1.39,.23,1.97,.23,1.37,0,2.49-.39,3.36-1.17Z"/><path d="M306.81,46.63v.17l-4.84,13.43c-.43,1.18-.88,2.12-1.36,2.83-.48,.71-1.03,1.22-1.64,1.54-.61,.32-1.33,.48-2.16,.48s-1.69-.15-2.52-.44l.67-1.91c.56,.17,1.11,.26,1.65,.26,.44,0,.82-.07,1.13-.2,.31-.14,.61-.4,.91-.78s.59-.97,.88-1.74l.35-.93h-.67l-4.87-12.53v-.17h2.64l2.99,8.12,.32,.87,.46,1.36,.73-2.23,2.78-8.12h2.55Z"/><path d="M317.92,59.12c-1.14-.38-2.15-.9-3.02-1.58l1.28-1.91c.77,.6,1.65,1.05,2.62,1.35,.98,.3,1.9,.45,2.77,.45,1.39,0,2.45-.25,3.18-.75,.73-.5,1.09-1.27,1.09-2.29,0-.6-.13-1.09-.39-1.48-.26-.39-.69-.74-1.28-1.06-.59-.32-1.44-.67-2.54-1.06l-.49-.17c-1.22-.42-2.2-.85-2.96-1.26-.75-.42-1.36-.96-1.83-1.64-.46-.68-.7-1.53-.7-2.55,0-1.08,.29-2,.88-2.74s1.37-1.3,2.33-1.67,2-.55,3.1-.55c1.16,0,2.26,.15,3.29,.44s2.04,.76,3.03,1.42l-1.22,1.91c-.85-.54-1.67-.93-2.46-1.17-.79-.24-1.68-.36-2.67-.36s-1.88,.21-2.55,.64c-.68,.43-1.02,1.08-1.02,1.97,0,.46,.11,.87,.33,1.22,.22,.35,.61,.68,1.16,.99,.55,.31,1.32,.64,2.31,.99l.49,.17c1.29,.45,2.33,.87,3.1,1.26,.77,.4,1.44,.97,2,1.71,.56,.74,.84,1.71,.84,2.89s-.28,2.17-.84,2.97c-.56,.8-1.36,1.41-2.41,1.83s-2.28,.62-3.71,.62c-1.35,0-2.6-.19-3.74-.57Z"/><path d="M348.54,46.63v.17l-3.83,12.53h-2.49l-2.32-7.77c-.31-1.08-.51-1.85-.61-2.29-.08,.43-.27,1.19-.58,2.29l-2.32,7.77h-2.35l-4.18-12.53v-.17h2.73l2.29,7.98c.1,.33,.24,.92,.43,1.77,.12-.68,.25-1.27,.41-1.77l2.32-7.98h2.73l2.32,7.98c.15,.54,.32,1.23,.49,2.06,.14-.81,.27-1.5,.41-2.06l2.12-7.98h2.44Z"/><path d="M351.27,43.81c-.27-.16-.49-.38-.65-.65-.16-.27-.25-.56-.25-.87,0-.33,.08-.63,.25-.9,.16-.27,.38-.49,.65-.65,.27-.16,.56-.25,.87-.25,.33,0,.63,.08,.9,.25,.27,.16,.49,.38,.65,.65,.16,.27,.25,.57,.25,.9,0,.31-.08,.6-.25,.87-.16,.27-.38,.49-.65,.65-.27,.16-.57,.25-.9,.25-.31,0-.6-.08-.87-.25Zm-.35,15.53v-12.7l2.49-.29v12.99h-2.49Z"/><path d="M358.55,59.26c-.91-.28-1.75-.71-2.52-1.29l1.1-1.77c1.41,1.01,2.88,1.51,4.41,1.51,.87,0,1.54-.15,2-.45,.46-.3,.7-.74,.7-1.32,0-.46-.21-.86-.62-1.2-.42-.34-1.15-.64-2.19-.91l-.9-.23c-1.35-.35-2.34-.81-2.97-1.38-.63-.57-.94-1.33-.94-2.28,0-.71,.2-1.35,.61-1.9,.41-.55,.97-.98,1.7-1.29,.73-.31,1.54-.46,2.45-.46s1.71,.1,2.51,.3,1.62,.55,2.45,1.03l-1.02,1.77c-.79-.43-1.48-.72-2.06-.88-.58-.16-1.2-.25-1.86-.25-.7,0-1.24,.14-1.64,.42-.4,.28-.59,.65-.59,1.12,0,.41,.16,.72,.48,.94,.32,.22,.87,.44,1.67,.65l.9,.23c1.1,.29,1.99,.62,2.65,.99,.67,.37,1.15,.81,1.46,1.32,.31,.51,.46,1.13,.46,1.84,0,.77-.2,1.46-.59,2.04-.4,.59-.98,1.05-1.75,1.38-.77,.33-1.71,.49-2.81,.49s-2.17-.14-3.07-.42Z"/><path d="M370.76,59.26c-.91-.28-1.75-.71-2.52-1.29l1.1-1.77c1.41,1.01,2.88,1.51,4.41,1.51,.87,0,1.54-.15,2-.45,.46-.3,.7-.74,.7-1.32,0-.46-.21-.86-.62-1.2-.42-.34-1.15-.64-2.19-.91l-.9-.23c-1.35-.35-2.34-.81-2.97-1.38-.63-.57-.94-1.33-.94-2.28,0-.71,.2-1.35,.61-1.9,.41-.55,.97-.98,1.7-1.29,.73-.31,1.54-.46,2.45-.46s1.71,.1,2.51,.3,1.62,.55,2.45,1.03l-1.02,1.77c-.79-.43-1.48-.72-2.06-.88-.58-.16-1.2-.25-1.86-.25-.7,0-1.24,.14-1.64,.42-.4,.28-.59,.65-.59,1.12,0,.41,.16,.72,.48,.94,.32,.22,.87,.44,1.67,.65l.9,.23c1.1,.29,1.99,.62,2.65,.99,.67,.37,1.15,.81,1.46,1.32,.31,.51,.46,1.13,.46,1.84,0,.77-.2,1.46-.59,2.04-.4,.59-.98,1.05-1.75,1.38-.77,.33-1.71,.49-2.81,.49s-2.17-.14-3.07-.42Z"/><path d="M397.39,47.3c.74,.68,1.12,1.74,1.12,3.19v8.85h-2.26l-.15-1.1c-1.33,.97-2.87,1.45-4.61,1.45-.73,0-1.39-.14-1.97-.42-.58-.28-1.03-.68-1.35-1.19-.32-.51-.48-1.1-.48-1.75,0-1.06,.38-1.95,1.13-2.65,.75-.71,1.76-1.22,3.02-1.55,1.26-.33,2.65-.51,4.18-.55v-.64c0-.87-.17-1.5-.52-1.9-.35-.4-.94-.59-1.77-.59-1.41,0-2.88,.5-4.41,1.51l-1.1-1.74c1.86-1.28,3.8-1.91,5.83-1.91,1.49,0,2.6,.34,3.35,1.01Zm-6.58,9.89c.3,.25,.75,.38,1.35,.38,1.31,0,2.6-.39,3.86-1.16v-3.02c-1.68,.08-3.04,.34-4.09,.78-1.04,.45-1.57,1.07-1.57,1.89,0,.5,.15,.88,.45,1.13Z"/><path d="M413.21,39.09v20.24h-2.26l-.12-.93c-.7,.41-1.4,.72-2.12,.94-.72,.22-1.38,.33-2,.33-1.12,0-2.08-.26-2.87-.77-.79-.51-1.4-1.25-1.81-2.2-.42-.96-.62-2.08-.62-3.38,0-1.47,.28-2.74,.86-3.8,.57-1.06,1.35-1.87,2.33-2.42,.99-.55,2.11-.83,3.36-.83,.83,0,1.75,.13,2.76,.38v-7.28l2.49-.29Zm-8.26,17.4c.58,.7,1.4,1.04,2.46,1.04,1.12,0,2.22-.32,3.31-.96v-7.89c-.87-.29-1.72-.44-2.55-.44s-1.49,.18-2.1,.54c-.61,.36-1.09,.91-1.45,1.67-.36,.75-.54,1.69-.54,2.81,0,1.45,.29,2.52,.87,3.22Z"/><path d="M428.06,46.63v.17l-5.07,12.53h-2.29l-5.19-12.53v-.17h2.73l3.07,8.18c.08,.19,.23,.64,.46,1.33l.17,.55c.19-.66,.4-1.29,.61-1.88l2.9-8.18h2.61Z"/><path d="M440.27,53.42h-8.84c.02,1.45,.37,2.5,1.06,3.16,.69,.66,1.57,.99,2.65,.99,.77,0,1.44-.1,2.02-.29,.57-.19,1.2-.49,1.9-.9l.96,1.77c-1.59,1.02-3.25,1.54-4.99,1.54-1.86,0-3.34-.52-4.45-1.55-1.11-1.03-1.67-2.67-1.67-4.92,0-1.28,.23-2.44,.7-3.48s1.16-1.88,2.07-2.51c.92-.63,2.04-.94,3.38-.94,1.12,0,2.08,.23,2.87,.68,.79,.45,1.39,1.08,1.8,1.87,.41,.79,.61,1.7,.61,2.73l-.06,1.86Zm-7.58-4.29c-.57,.6-.94,1.42-1.12,2.46h6.32v-.12c0-1.08-.25-1.89-.74-2.44-.49-.54-1.19-.81-2.1-.81-1.01,0-1.79,.3-2.36,.9Z"/><path d="M454.39,50.32v9.02h-2.49v-8.09c0-.72-.07-1.27-.22-1.67-.15-.4-.39-.68-.73-.86-.34-.17-.8-.26-1.38-.26s-1.2,.08-1.86,.25c-.66,.16-1.28,.38-1.86,.65v9.98h-2.49v-12.7l2.49-.29v1.22c1.62-.85,3.17-1.28,4.64-1.28,2.59,0,3.89,1.34,3.89,4.03Z"/><path d="M465.87,58.87c-1.01,.54-2.07,.81-3.19,.81-1.2,0-2.15-.34-2.84-1.03-.7-.69-1.04-1.72-1.04-3.09v-6.96h-2.55v-1.97h2.55v-2.87l2.49-.41v3.28h4.29l-.26,1.97h-4.03v6.55c0,1.62,.6,2.44,1.8,2.44,.35,0,.69-.04,1.02-.12,.33-.08,.69-.2,1.07-.38l.7,1.77Z"/><path d="M479.1,46.34v12.99h-2.23l-.15-.96c-1.49,.87-3,1.31-4.52,1.31-1.18,0-2.14-.33-2.89-1-.74-.67-1.12-1.68-1.12-3.03v-9.02l2.49-.29v8.58c0,.64,.08,1.15,.23,1.52,.15,.38,.41,.65,.75,.81,.35,.16,.83,.25,1.45,.25,.93,0,2.09-.36,3.48-1.07v-9.8l2.49-.29Z"/><path d="M490.26,46.34c.27,.04,.56,.1,.87,.17l-.46,2.58c-.66-.23-1.26-.35-1.8-.35-.62,0-1.19,.14-1.71,.41-.52,.27-1.03,.78-1.51,1.54v8.64h-2.49v-12.73l2.49-.26v1.83c.48-.62,1.04-1.09,1.68-1.41,.64-.32,1.31-.48,2.03-.48,.33,0,.63,.02,.9,.06Z"/><path d="M503.37,53.42h-8.84c.02,1.45,.37,2.5,1.06,3.16,.69,.66,1.57,.99,2.65,.99,.77,0,1.44-.1,2.02-.29,.57-.19,1.2-.49,1.9-.9l.96,1.77c-1.59,1.02-3.25,1.54-4.99,1.54-1.86,0-3.34-.52-4.45-1.55-1.11-1.03-1.67-2.67-1.67-4.92,0-1.28,.23-2.44,.7-3.48s1.16-1.88,2.07-2.51c.92-.63,2.04-.94,3.38-.94,1.12,0,2.08,.23,2.87,.68,.79,.45,1.39,1.08,1.8,1.87,.41,.79,.61,1.7,.61,2.73l-.06,1.86Zm-7.58-4.29c-.57,.6-.94,1.42-1.12,2.46h6.32v-.12c0-1.08-.25-1.89-.74-2.44-.49-.54-1.19-.81-2.1-.81-1.01,0-1.79,.3-2.36,.9Z"/><path d="M513.58,46.34c.27,.04,.56,.1,.87,.17l-.46,2.58c-.66-.23-1.26-.35-1.8-.35-.62,0-1.19,.14-1.71,.41-.52,.27-1.03,.78-1.51,1.54v8.64h-2.49v-12.73l2.49-.26v1.83c.48-.62,1.04-1.09,1.68-1.41,.64-.32,1.31-.48,2.03-.48,.33,0,.63,.02,.9,.06Z"/><path d="M538.72,40.54v.17l-6.96,11.28v7.34h-2.67v-7.42l-6.76-11.19v-.17h2.93l5.25,9.02,5.45-9.02h2.75Z"/><path d="M550,46.63v.17l-5.07,12.53h-2.29l-5.19-12.53v-.17h2.73l3.07,8.18c.08,.19,.23,.64,.46,1.33l.17,.55c.19-.66,.4-1.29,.61-1.88l2.9-8.18h2.61Z"/><path d="M562.21,53.42h-8.84c.02,1.45,.37,2.5,1.06,3.16,.69,.66,1.57,.99,2.65,.99,.77,0,1.44-.1,2.02-.29,.57-.19,1.2-.49,1.9-.9l.96,1.77c-1.59,1.02-3.25,1.54-4.99,1.54-1.86,0-3.34-.52-4.45-1.55-1.11-1.03-1.67-2.67-1.67-4.92,0-1.28,.23-2.44,.7-3.48s1.16-1.88,2.07-2.51c.92-.63,2.04-.94,3.38-.94,1.12,0,2.08,.23,2.87,.68,.79,.45,1.39,1.08,1.8,1.87,.41,.79,.61,1.7,.61,2.73l-.06,1.86Zm-7.58-4.29c-.57,.6-.94,1.42-1.12,2.46h6.32v-.12c0-1.08-.25-1.89-.74-2.44-.49-.54-1.19-.81-2.1-.81-1.01,0-1.79,.3-2.36,.9Z"/><path d="M566.38,59.26c-.91-.28-1.75-.71-2.52-1.29l1.1-1.77c1.41,1.01,2.88,1.51,4.41,1.51,.87,0,1.54-.15,2-.45,.46-.3,.7-.74,.7-1.32,0-.46-.21-.86-.62-1.2-.42-.34-1.15-.64-2.19-.91l-.9-.23c-1.35-.35-2.34-.81-2.97-1.38-.63-.57-.94-1.33-.94-2.28,0-.71,.2-1.35,.61-1.9,.41-.55,.97-.98,1.7-1.29,.73-.31,1.54-.46,2.45-.46s1.71,.1,2.51,.3,1.62,.55,2.45,1.03l-1.02,1.77c-.79-.43-1.48-.72-2.06-.88-.58-.16-1.2-.25-1.86-.25-.7,0-1.24,.14-1.64,.42-.4,.28-.59,.65-.59,1.12,0,.41,.16,.72,.48,.94,.32,.22,.87,.44,1.67,.65l.9,.23c1.1,.29,1.99,.62,2.65,.99,.67,.37,1.15,.81,1.46,1.32,.31,.51,.46,1.13,.46,1.84,0,.77-.2,1.46-.59,2.04-.4,.59-.98,1.05-1.75,1.38-.77,.33-1.71,.49-2.81,.49s-2.17-.14-3.07-.42Z"/><path d="M598.78,59.16v.17h-3.07l-5.42-7.34h-2.78v7.34h-2.67v-18.79h6.12c1.47,0,2.71,.23,3.73,.7,1.01,.46,1.78,1.11,2.29,1.94,.51,.83,.77,1.8,.77,2.9,0,.89-.17,1.71-.51,2.46s-.85,1.41-1.52,1.96c-.68,.55-1.52,.95-2.52,1.2l5.6,7.45Zm-11.28-9.37h3.04c1.45,0,2.55-.31,3.29-.94,.74-.63,1.12-1.51,1.12-2.65s-.34-1.94-1.03-2.52c-.69-.58-1.7-.87-3.03-.87h-3.39v6.99Z"/><path d="M602.43,58.8c-.91-.59-1.59-1.39-2.03-2.41-.45-1.02-.67-2.16-.67-3.44,0-1.55,.29-2.82,.87-3.81,.58-1,1.36-1.72,2.35-2.18,.99-.45,2.11-.68,3.36-.68,1.35,0,2.48,.29,3.39,.88,.91,.59,1.58,1.39,2.03,2.39,.44,1.01,.67,2.15,.67,3.42,0,1.57-.29,2.85-.87,3.84s-1.36,1.72-2.35,2.17c-.99,.45-2.11,.68-3.36,.68-1.35,0-2.48-.29-3.39-.88Zm7.37-5.84c0-1.41-.3-2.54-.91-3.38-.61-.84-1.52-1.26-2.74-1.26-1.35,0-2.32,.41-2.91,1.23-.59,.82-.88,1.96-.88,3.41s.31,2.57,.93,3.42c.62,.85,1.55,1.28,2.78,1.28,2.49,0,3.74-1.57,3.74-4.7Z"/><path d="M616.52,59.26c-.91-.28-1.75-.71-2.52-1.29l1.1-1.77c1.41,1.01,2.88,1.51,4.41,1.51,.87,0,1.54-.15,2-.45,.46-.3,.7-.74,.7-1.32,0-.46-.21-.86-.62-1.2-.42-.34-1.15-.64-2.19-.91l-.9-.23c-1.35-.35-2.34-.81-2.97-1.38-.63-.57-.94-1.33-.94-2.28,0-.71,.2-1.35,.61-1.9,.41-.55,.97-.98,1.7-1.29,.73-.31,1.54-.46,2.45-.46s1.71,.1,2.51,.3,1.62,.55,2.45,1.03l-1.02,1.77c-.79-.43-1.48-.72-2.06-.88-.58-.16-1.2-.25-1.86-.25-.7,0-1.24,.14-1.64,.42-.4,.28-.59,.65-.59,1.12,0,.41,.16,.72,.48,.94,.32,.22,.87,.44,1.67,.65l.9,.23c1.1,.29,1.99,.62,2.65,.99,.67,.37,1.15,.81,1.46,1.32,.31,.51,.46,1.13,.46,1.84,0,.77-.2,1.46-.59,2.04-.4,.59-.98,1.05-1.75,1.38-.77,.33-1.71,.49-2.81,.49s-2.17-.14-3.07-.42Z"/><path d="M628.73,59.26c-.91-.28-1.75-.71-2.52-1.29l1.1-1.77c1.41,1.01,2.88,1.51,4.41,1.51,.87,0,1.54-.15,2-.45,.46-.3,.7-.74,.7-1.32,0-.46-.21-.86-.62-1.2-.42-.34-1.15-.64-2.19-.91l-.9-.23c-1.35-.35-2.34-.81-2.97-1.38-.63-.57-.94-1.33-.94-2.28,0-.71,.2-1.35,.61-1.9,.41-.55,.97-.98,1.7-1.29,.73-.31,1.54-.46,2.45-.46s1.71,.1,2.51,.3,1.62,.55,2.45,1.03l-1.02,1.77c-.79-.43-1.48-.72-2.06-.88-.58-.16-1.2-.25-1.86-.25-.7,0-1.24,.14-1.64,.42-.4,.28-.59,.65-.59,1.12,0,.41,.16,.72,.48,.94,.32,.22,.87,.44,1.67,.65l.9,.23c1.1,.29,1.99,.62,2.65,.99,.67,.37,1.15,.81,1.46,1.32,.31,.51,.46,1.13,.46,1.84,0,.77-.2,1.46-.59,2.04-.4,.59-.98,1.05-1.75,1.38-.77,.33-1.71,.49-2.81,.49s-2.17-.14-3.07-.42Z"/><path d="M650.57,46.63v.17l-4.84,13.43c-.43,1.18-.88,2.12-1.36,2.83-.48,.71-1.03,1.22-1.64,1.54-.61,.32-1.33,.48-2.16,.48s-1.69-.15-2.52-.44l.67-1.91c.56,.17,1.11,.26,1.65,.26,.44,0,.82-.07,1.13-.2,.31-.14,.61-.4,.91-.78s.59-.97,.88-1.74l.35-.93h-.67l-4.87-12.53v-.17h2.64l2.99,8.12,.32,.87,.46,1.36,.73-2.23,2.78-8.12h2.55Z"/><path d="M650.6,62.84c.91-1.26,1.36-2.2,1.36-2.84,0-.17-.04-.31-.13-.42-.09-.11-.22-.23-.39-.36-.25-.19-.44-.38-.57-.57-.13-.18-.19-.47-.19-.86,0-.5,.18-.93,.54-1.29,.36-.36,.8-.54,1.32-.54s.94,.19,1.3,.57,.55,.92,.55,1.64c0,1.64-.79,3.46-2.38,5.45l-1.42-.78Z"/><path d="M665.33,59.26c-.91-.28-1.75-.71-2.52-1.29l1.1-1.77c1.41,1.01,2.88,1.51,4.41,1.51,.87,0,1.54-.15,2-.45,.46-.3,.7-.74,.7-1.32,0-.46-.21-.86-.62-1.2-.42-.34-1.15-.64-2.19-.91l-.9-.23c-1.35-.35-2.34-.81-2.97-1.38-.63-.57-.94-1.33-.94-2.28,0-.71,.2-1.35,.61-1.9,.41-.55,.97-.98,1.7-1.29,.73-.31,1.54-.46,2.45-.46s1.71,.1,2.51,.3,1.62,.55,2.45,1.03l-1.02,1.77c-.79-.43-1.48-.72-2.06-.88-.58-.16-1.2-.25-1.86-.25-.7,0-1.24,.14-1.64,.42-.4,.28-.59,.65-.59,1.12,0,.41,.16,.72,.48,.94,.32,.22,.87,.44,1.67,.65l.9,.23c1.1,.29,1.99,.62,2.65,.99,.67,.37,1.15,.81,1.46,1.32,.31,.51,.46,1.13,.46,1.84,0,.77-.2,1.46-.59,2.04-.4,.59-.98,1.05-1.75,1.38-.77,.33-1.71,.49-2.81,.49s-2.17-.14-3.07-.42Z"/><path d="M686.82,53.42h-8.84c.02,1.45,.37,2.5,1.06,3.16,.69,.66,1.57,.99,2.65,.99,.77,0,1.44-.1,2.02-.29,.57-.19,1.2-.49,1.9-.9l.96,1.77c-1.59,1.02-3.25,1.54-4.99,1.54-1.86,0-3.34-.52-4.45-1.55-1.11-1.03-1.67-2.67-1.67-4.92,0-1.28,.23-2.44,.7-3.48s1.16-1.88,2.07-2.51c.92-.63,2.04-.94,3.38-.94,1.12,0,2.08,.23,2.87,.68,.79,.45,1.39,1.08,1.8,1.87,.41,.79,.61,1.7,.61,2.73l-.06,1.86Zm-7.58-4.29c-.57,.6-.94,1.42-1.12,2.46h6.32v-.12c0-1.08-.25-1.89-.74-2.44-.49-.54-1.19-.81-2.1-.81-1.01,0-1.79,.3-2.36,.9Z"/><path d="M700.27,53.42h-8.84c.02,1.45,.37,2.5,1.06,3.16,.69,.66,1.57,.99,2.65,.99,.77,0,1.44-.1,2.02-.29,.57-.19,1.2-.49,1.9-.9l.96,1.77c-1.59,1.02-3.25,1.54-4.99,1.54-1.86,0-3.34-.52-4.45-1.55-1.11-1.03-1.67-2.67-1.67-4.92,0-1.28,.23-2.44,.7-3.48s1.16-1.88,2.07-2.51c.92-.63,2.04-.94,3.38-.94,1.12,0,2.08,.23,2.87,.68,.79,.45,1.39,1.08,1.8,1.87,.41,.79,.61,1.7,.61,2.73l-.06,1.86Zm-7.58-4.29c-.57,.6-.94,1.42-1.12,2.46h6.32v-.12c0-1.08-.25-1.89-.74-2.44-.49-.54-1.19-.81-2.1-.81-1.01,0-1.79,.3-2.36,.9Z"/><path d="M704.45,59.26c-.91-.28-1.75-.71-2.52-1.29l1.1-1.77c1.41,1.01,2.88,1.51,4.41,1.51,.87,0,1.54-.15,2-.45,.46-.3,.7-.74,.7-1.32,0-.46-.21-.86-.62-1.2-.42-.34-1.15-.64-2.19-.91l-.9-.23c-1.35-.35-2.34-.81-2.97-1.38-.63-.57-.94-1.33-.94-2.28,0-.71,.2-1.35,.61-1.9,.41-.55,.97-.98,1.7-1.29,.73-.31,1.54-.46,2.45-.46s1.71,.1,2.51,.3,1.62,.55,2.45,1.03l-1.02,1.77c-.79-.43-1.48-.72-2.06-.88-.58-.16-1.2-.25-1.86-.25-.7,0-1.24,.14-1.64,.42-.4,.28-.59,.65-.59,1.12,0,.41,.16,.72,.48,.94,.32,.22,.87,.44,1.67,.65l.9,.23c1.1,.29,1.99,.62,2.65,.99,.67,.37,1.15,.81,1.46,1.32,.31,.51,.46,1.13,.46,1.84,0,.77-.2,1.46-.59,2.04-.4,.59-.98,1.05-1.75,1.38-.77,.33-1.71,.49-2.81,.49s-2.17-.14-3.07-.42Z"/><path d="M722.89,43.81c-.27-.16-.49-.38-.65-.65-.16-.27-.25-.56-.25-.87,0-.33,.08-.63,.25-.9,.16-.27,.38-.49,.65-.65,.27-.16,.56-.25,.87-.25,.33,0,.63,.08,.9,.25,.27,.16,.49,.38,.65,.65,.16,.27,.25,.57,.25,.9,0,.31-.08,.6-.25,.87-.16,.27-.38,.49-.65,.65-.27,.16-.57,.25-.9,.25-.31,0-.6-.08-.87-.25Zm-.35,15.53v-12.7l2.49-.29v12.99h-2.49Z"/><path d="M737.13,58.87c-1.01,.54-2.07,.81-3.19,.81-1.2,0-2.15-.34-2.84-1.03-.7-.69-1.04-1.72-1.04-3.09v-6.96h-2.55v-1.97h2.55v-2.87l2.49-.41v3.28h4.29l-.26,1.97h-4.03v6.55c0,1.62,.6,2.44,1.8,2.44,.35,0,.69-.04,1.02-.12,.33-.08,.69-.2,1.07-.38l.7,1.77Z"/><path d="M740.67,59.26c-.91-.28-1.75-.71-2.52-1.29l1.1-1.77c1.41,1.01,2.88,1.51,4.41,1.51,.87,0,1.54-.15,2-.45,.46-.3,.7-.74,.7-1.32,0-.46-.21-.86-.62-1.2-.42-.34-1.15-.64-2.19-.91l-.9-.23c-1.35-.35-2.34-.81-2.97-1.38-.63-.57-.94-1.33-.94-2.28,0-.71,.2-1.35,.61-1.9,.41-.55,.97-.98,1.7-1.29,.73-.31,1.54-.46,2.45-.46s1.71,.1,2.51,.3,1.62,.55,2.45,1.03l-1.02,1.77c-.79-.43-1.48-.72-2.06-.88-.58-.16-1.2-.25-1.86-.25-.7,0-1.24,.14-1.64,.42-.4,.28-.59,.65-.59,1.12,0,.41,.16,.72,.48,.94,.32,.22,.87,.44,1.67,.65l.9,.23c1.1,.29,1.99,.62,2.65,.99,.67,.37,1.15,.81,1.46,1.32,.31,.51,.46,1.13,.46,1.84,0,.77-.2,1.46-.59,2.04-.4,.59-.98,1.05-1.75,1.38-.77,.33-1.71,.49-2.81,.49s-2.17-.14-3.07-.42Z"/><path d="M767.3,47.3c.74,.68,1.12,1.74,1.12,3.19v8.85h-2.26l-.15-1.1c-1.33,.97-2.87,1.45-4.61,1.45-.73,0-1.39-.14-1.97-.42-.58-.28-1.03-.68-1.35-1.19-.32-.51-.48-1.1-.48-1.75,0-1.06,.38-1.95,1.13-2.65,.75-.71,1.76-1.22,3.02-1.55,1.26-.33,2.65-.51,4.18-.55v-.64c0-.87-.17-1.5-.52-1.9-.35-.4-.94-.59-1.77-.59-1.41,0-2.88,.5-4.41,1.51l-1.1-1.74c1.86-1.28,3.8-1.91,5.83-1.91,1.49,0,2.6,.34,3.35,1.01Zm-6.58,9.89c.3,.25,.75,.38,1.35,.38,1.31,0,2.6-.39,3.86-1.16v-3.02c-1.68,.08-3.04,.34-4.09,.78-1.04,.45-1.57,1.07-1.57,1.89,0,.5,.15,.88,.45,1.13Z"/><path d="M779.91,58.87c-1.01,.54-2.07,.81-3.19,.81-1.2,0-2.15-.34-2.84-1.03-.7-.69-1.04-1.72-1.04-3.09v-6.96h-2.55v-1.97h2.55v-2.87l2.49-.41v3.28h4.29l-.26,1.97h-4.03v6.55c0,1.62,.6,2.44,1.8,2.44,.35,0,.69-.04,1.02-.12,.33-.08,.69-.2,1.07-.38l.7,1.77Z"/><path d="M792.29,47.21c.7,.62,1.04,1.62,1.04,3.02v9.11h-2.49v-8.09c0-.72-.07-1.27-.22-1.67-.14-.4-.39-.68-.72-.86-.34-.17-.8-.26-1.38-.26s-1.19,.08-1.84,.23c-.65,.16-1.25,.37-1.81,.64v10h-2.49v-19.95l2.49-.29v8.44c1.58-.83,3.11-1.25,4.58-1.25,1.2,0,2.15,.31,2.84,.93Z"/><path d="M797.25,59.33v-19.95l2.49-.29v20.24h-2.49Z"/><path d="M814.15,53.42h-8.84c.02,1.45,.37,2.5,1.06,3.16,.69,.66,1.57,.99,2.65,.99,.77,0,1.44-.1,2.02-.29,.57-.19,1.2-.49,1.9-.9l.96,1.77c-1.59,1.02-3.25,1.54-4.99,1.54-1.86,0-3.34-.52-4.45-1.55-1.11-1.03-1.67-2.67-1.67-4.92,0-1.28,.23-2.44,.7-3.48s1.16-1.88,2.07-2.51c.92-.63,2.04-.94,3.38-.94,1.12,0,2.08,.23,2.87,.68,.79,.45,1.39,1.08,1.8,1.87,.41,.79,.61,1.7,.61,2.73l-.06,1.86Zm-7.58-4.29c-.57,.6-.94,1.42-1.12,2.46h6.32v-.12c0-1.08-.25-1.89-.74-2.44-.49-.54-1.19-.81-2.1-.81-1.01,0-1.79,.3-2.36,.9Z"/><path d="M824.97,58.87c-1.01,.54-2.07,.81-3.19,.81-1.2,0-2.15-.34-2.84-1.03-.7-.69-1.04-1.72-1.04-3.09v-6.96h-2.55v-1.97h2.55v-2.87l2.49-.41v3.28h4.29l-.26,1.97h-4.03v6.55c0,1.62,.6,2.44,1.8,2.44,.35,0,.69-.04,1.02-.12,.33-.08,.69-.2,1.07-.38l.7,1.77Z"/><path d="M837.5,53.42h-8.84c.02,1.45,.37,2.5,1.06,3.16,.69,.66,1.57,.99,2.65,.99,.77,0,1.44-.1,2.02-.29,.57-.19,1.2-.49,1.9-.9l.96,1.77c-1.59,1.02-3.25,1.54-4.99,1.54-1.86,0-3.34-.52-4.45-1.55-1.11-1.03-1.67-2.67-1.67-4.92,0-1.28,.23-2.44,.7-3.48s1.16-1.88,2.07-2.51c.92-.63,2.04-.94,3.38-.94,1.12,0,2.08,.23,2.87,.68,.79,.45,1.39,1.08,1.8,1.87,.41,.79,.61,1.7,.61,2.73l-.06,1.86Zm-7.58-4.29c-.57,.6-.94,1.42-1.12,2.46h6.32v-.12c0-1.08-.25-1.89-.74-2.44-.49-.54-1.19-.81-2.1-.81-1.01,0-1.79,.3-2.36,.9Z"/><path d="M841.67,59.26c-.91-.28-1.75-.71-2.52-1.29l1.1-1.77c1.41,1.01,2.88,1.51,4.41,1.51,.87,0,1.54-.15,2-.45,.46-.3,.7-.74,.7-1.32,0-.46-.21-.86-.62-1.2-.42-.34-1.15-.64-2.19-.91l-.9-.23c-1.35-.35-2.34-.81-2.97-1.38-.63-.57-.94-1.33-.94-2.28,0-.71,.2-1.35,.61-1.9,.41-.55,.97-.98,1.7-1.29,.73-.31,1.54-.46,2.45-.46s1.71,.1,2.51,.3,1.62,.55,2.45,1.03l-1.02,1.77c-.79-.43-1.48-.72-2.06-.88-.58-.16-1.2-.25-1.86-.25-.7,0-1.24,.14-1.64,.42-.4,.28-.59,.65-.59,1.12,0,.41,.16,.72,.48,.94,.32,.22,.87,.44,1.67,.65l.9,.23c1.1,.29,1.99,.62,2.65,.99,.67,.37,1.15,.81,1.46,1.32,.31,.51,.46,1.13,.46,1.84,0,.77-.2,1.46-.59,2.04-.4,.59-.98,1.05-1.75,1.38-.77,.33-1.71,.49-2.81,.49s-2.17-.14-3.07-.42Z"/><path d="M862.03,57.19h7.05v2.15h-10.61v-1.13l7.08-9.43h-6.58l.29-2.15h9.8v1.1l-7.02,9.45Z"/><path d="M872.33,43.81c-.27-.16-.49-.38-.65-.65-.16-.27-.25-.56-.25-.87,0-.33,.08-.63,.25-.9,.16-.27,.38-.49,.65-.65,.27-.16,.56-.25,.87-.25,.33,0,.63,.08,.9,.25,.27,.16,.49,.38,.65,.65,.16,.27,.25,.57,.25,.9,0,.31-.08,.6-.25,.87-.16,.27-.38,.49-.65,.65-.27,.16-.57,.25-.9,.25-.31,0-.6-.08-.87-.25Zm-.35,15.53v-12.7l2.49-.29v12.99h-2.49Z"/><path d="M888.01,47.15c.79,.58,1.38,1.35,1.75,2.32s.57,2.02,.57,3.16c0,1.47-.29,2.74-.86,3.8-.57,1.06-1.35,1.87-2.33,2.42s-2.11,.83-3.36,.83c-.95,0-1.87-.13-2.75-.38v5.42h-2.49v-18.1l2.49-.29v1.13c.7-.39,1.39-.68,2.07-.88,.69-.2,1.33-.3,1.93-.3,1.2,0,2.19,.29,2.99,.87Zm-2.33,10.02c.61-.36,1.09-.91,1.45-1.67,.36-.75,.54-1.69,.54-2.81,0-1.45-.29-2.52-.87-3.22-.58-.7-1.4-1.04-2.46-1.04-1.12,0-2.22,.32-3.31,.96v7.89c.91,.29,1.76,.44,2.55,.44s1.49-.18,2.1-.54Z"/><path d="M10.71,82.1c.74,.68,1.12,1.74,1.12,3.19v8.85h-2.26l-.15-1.1c-1.33,.97-2.87,1.45-4.61,1.45-.73,0-1.39-.14-1.97-.42-.58-.28-1.03-.68-1.35-1.19-.32-.51-.48-1.1-.48-1.75,0-1.06,.38-1.95,1.13-2.65,.75-.71,1.76-1.22,3.02-1.55,1.26-.33,2.65-.51,4.18-.55v-.64c0-.87-.17-1.5-.52-1.9-.35-.4-.94-.59-1.77-.59-1.41,0-2.88,.5-4.41,1.51l-1.1-1.74c1.86-1.28,3.8-1.91,5.83-1.91,1.49,0,2.6,.34,3.35,1.01Zm-6.58,9.89c.3,.25,.75,.38,1.35,.38,1.31,0,2.6-.39,3.86-1.16v-3.02c-1.68,.08-3.04,.34-4.09,.78-1.04,.45-1.57,1.07-1.57,1.89,0,.5,.15,.88,.45,1.13Z"/><path d="M16.35,92.96c-1.08-1.02-1.62-2.63-1.62-4.86,0-1.6,.31-2.93,.93-3.99,.62-1.05,1.42-1.82,2.39-2.31,.98-.48,2.02-.72,3.12-.72,1.28,0,2.61,.37,4,1.1l-.93,1.91c-.68-.33-1.26-.56-1.75-.7s-1-.2-1.52-.2c-1.14,0-2.03,.43-2.67,1.29-.64,.86-.96,2.06-.96,3.61s.32,2.59,.97,3.25c.65,.66,1.52,.99,2.62,.99,.66,0,1.25-.1,1.78-.3s1.12-.49,1.75-.86l.99,1.77c-.72,.46-1.46,.84-2.22,1.12-.76,.28-1.61,.42-2.54,.42-1.82,0-3.27-.51-4.35-1.52Z"/><path d="M35,81.14c.27,.04,.56,.1,.87,.17l-.46,2.58c-.66-.23-1.26-.35-1.8-.35-.62,0-1.19,.14-1.71,.41-.52,.27-1.03,.78-1.51,1.54v8.64h-2.49v-12.73l2.49-.26v1.83c.48-.62,1.04-1.09,1.68-1.41,.64-.32,1.31-.48,2.03-.48,.33,0,.63,.02,.9,.06Z"/><path d="M39.43,93.6c-.91-.59-1.59-1.39-2.03-2.41-.45-1.02-.67-2.16-.67-3.44,0-1.55,.29-2.82,.87-3.81,.58-1,1.36-1.72,2.35-2.18,.99-.45,2.11-.68,3.36-.68,1.35,0,2.48,.29,3.39,.88,.91,.59,1.58,1.39,2.03,2.39,.44,1.01,.67,2.15,.67,3.42,0,1.57-.29,2.85-.87,3.84s-1.36,1.72-2.35,2.17c-.99,.45-2.11,.68-3.36,.68-1.35,0-2.48-.29-3.39-.88Zm7.37-5.84c0-1.41-.3-2.54-.91-3.38-.61-.84-1.52-1.26-2.74-1.26-1.35,0-2.32,.41-2.91,1.23-.59,.82-.88,1.96-.88,3.41s.31,2.57,.93,3.42c.62,.85,1.55,1.28,2.78,1.28,2.49,0,3.74-1.57,3.74-4.7Z"/><path d="M53.53,94.06c-.91-.28-1.75-.71-2.52-1.29l1.1-1.77c1.41,1.01,2.88,1.51,4.41,1.51,.87,0,1.54-.15,2-.45,.46-.3,.7-.74,.7-1.32,0-.46-.21-.86-.62-1.2-.42-.34-1.15-.64-2.19-.91l-.9-.23c-1.35-.35-2.34-.81-2.97-1.38-.63-.57-.94-1.33-.94-2.28,0-.71,.2-1.35,.61-1.9,.41-.55,.97-.98,1.7-1.29,.73-.31,1.54-.46,2.45-.46s1.71,.1,2.51,.3,1.62,.55,2.45,1.03l-1.02,1.77c-.79-.43-1.48-.72-2.06-.88-.58-.16-1.2-.25-1.86-.25-.7,0-1.24,.14-1.64,.42-.4,.28-.59,.65-.59,1.12,0,.41,.16,.72,.48,.94,.32,.22,.87,.44,1.67,.65l.9,.23c1.1,.29,1.99,.62,2.65,.99,.67,.37,1.15,.81,1.46,1.32,.31,.51,.46,1.13,.46,1.84,0,.77-.2,1.46-.59,2.04-.4,.59-.98,1.05-1.75,1.38-.77,.33-1.71,.49-2.81,.49s-2.17-.14-3.07-.42Z"/><path d="M65.74,94.06c-.91-.28-1.75-.71-2.52-1.29l1.1-1.77c1.41,1.01,2.88,1.51,4.41,1.51,.87,0,1.54-.15,2-.45,.46-.3,.7-.74,.7-1.32,0-.46-.21-.86-.62-1.2-.42-.34-1.15-.64-2.19-.91l-.9-.23c-1.35-.35-2.34-.81-2.97-1.38-.63-.57-.94-1.33-.94-2.28,0-.71,.2-1.35,.61-1.9,.41-.55,.97-.98,1.7-1.29,.73-.31,1.54-.46,2.45-.46s1.71,.1,2.51,.3,1.62,.55,2.45,1.03l-1.02,1.77c-.79-.43-1.48-.72-2.06-.88-.58-.16-1.2-.25-1.86-.25-.7,0-1.24,.14-1.64,.42-.4,.28-.59,.65-.59,1.12,0,.41,.16,.72,.48,.94,.32,.22,.87,.44,1.67,.65l.9,.23c1.1,.29,1.99,.62,2.65,.99,.67,.37,1.15,.81,1.46,1.32,.31,.51,.46,1.13,.46,1.84,0,.77-.2,1.46-.59,2.04-.4,.59-.98,1.05-1.75,1.38-.77,.33-1.71,.49-2.81,.49s-2.17-.14-3.07-.42Z"/><path d="M91.86,93.67c-1.01,.54-2.07,.81-3.19,.81-1.2,0-2.15-.34-2.84-1.03-.7-.69-1.04-1.72-1.04-3.09v-6.96h-2.55v-1.97h2.55v-2.87l2.49-.41v3.28h4.29l-.26,1.97h-4.03v6.55c0,1.62,.6,2.44,1.8,2.44,.35,0,.69-.04,1.02-.12,.33-.08,.69-.2,1.07-.38l.7,1.77Z"/><path d="M104.25,82.01c.7,.62,1.04,1.62,1.04,3.02v9.11h-2.49v-8.09c0-.72-.07-1.27-.22-1.67-.14-.4-.39-.68-.72-.86-.34-.17-.8-.26-1.38-.26s-1.19,.08-1.84,.23c-.65,.16-1.25,.37-1.81,.64v10h-2.49v-19.95l2.49-.29v8.44c1.58-.83,3.11-1.25,4.58-1.25,1.2,0,2.15,.31,2.84,.93Z"/><path d="M119.56,88.22h-8.84c.02,1.45,.37,2.5,1.06,3.16,.69,.66,1.57,.99,2.65,.99,.77,0,1.44-.1,2.02-.29,.57-.19,1.2-.49,1.9-.9l.96,1.77c-1.59,1.02-3.25,1.54-4.99,1.54-1.86,0-3.34-.52-4.45-1.55-1.11-1.03-1.67-2.67-1.67-4.92,0-1.28,.23-2.44,.7-3.48s1.16-1.88,2.07-2.51c.92-.63,2.04-.94,3.38-.94,1.12,0,2.08,.23,2.87,.68,.79,.45,1.39,1.08,1.8,1.87,.41,.79,.61,1.7,.61,2.73l-.06,1.86Zm-7.58-4.29c-.57,.6-.94,1.42-1.12,2.46h6.32v-.12c0-1.08-.25-1.89-.74-2.44-.49-.54-1.19-.81-2.1-.81-1.01,0-1.79,.3-2.36,.9Z"/><path d="M130.69,94.06c-.91-.28-1.75-.71-2.52-1.29l1.1-1.77c1.41,1.01,2.88,1.51,4.41,1.51,.87,0,1.54-.15,2-.45,.46-.3,.7-.74,.7-1.32,0-.46-.21-.86-.62-1.2-.42-.34-1.15-.64-2.19-.91l-.9-.23c-1.35-.35-2.34-.81-2.97-1.38-.63-.57-.94-1.33-.94-2.28,0-.71,.2-1.35,.61-1.9,.41-.55,.97-.98,1.7-1.29,.73-.31,1.54-.46,2.45-.46s1.71,.1,2.51,.3,1.62,.55,2.45,1.03l-1.02,1.77c-.79-.43-1.48-.72-2.06-.88-.58-.16-1.2-.25-1.86-.25-.7,0-1.24,.14-1.64,.42-.4,.28-.59,.65-.59,1.12,0,.41,.16,.72,.48,.94,.32,.22,.87,.44,1.67,.65l.9,.23c1.1,.29,1.99,.62,2.65,.99,.67,.37,1.15,.81,1.46,1.32,.31,.51,.46,1.13,.46,1.84,0,.77-.2,1.46-.59,2.04-.4,.59-.98,1.05-1.75,1.38-.77,.33-1.71,.49-2.81,.49s-2.17-.14-3.07-.42Z"/><path d="M147.2,87.35l5.54,6.61v.17h-3.04l-5.37-6.64v6.64h-2.49v-19.95l2.49-.29v13.4l5.39-5.86h2.75v.17l-5.28,5.74Z"/><path d="M165.9,81.43v.17l-4.84,13.43c-.43,1.18-.88,2.12-1.36,2.83-.48,.71-1.03,1.22-1.64,1.54-.61,.32-1.33,.48-2.16,.48s-1.69-.15-2.52-.44l.67-1.91c.56,.17,1.11,.26,1.65,.26,.44,0,.82-.07,1.13-.2,.31-.14,.61-.4,.91-.78s.59-.97,.88-1.74l.35-.93h-.67l-4.87-12.53v-.17h2.64l2.99,8.12,.32,.87,.46,1.36,.73-2.23,2.78-8.12h2.55Z"/><path d="M192.15,81.43v.17l-3.83,12.53h-2.49l-2.32-7.77c-.31-1.08-.51-1.85-.61-2.29-.08,.43-.27,1.19-.58,2.29l-2.32,7.77h-2.35l-4.18-12.53v-.17h2.73l2.29,7.98c.1,.33,.24,.92,.43,1.77,.12-.68,.25-1.27,.41-1.77l2.32-7.98h2.73l2.32,7.98c.15,.54,.32,1.23,.49,2.06,.14-.81,.27-1.5,.41-2.06l2.12-7.98h2.44Z"/><path d="M194.87,78.61c-.27-.16-.49-.38-.65-.65-.16-.27-.25-.56-.25-.87,0-.33,.08-.63,.25-.9,.16-.27,.38-.49,.65-.65,.27-.16,.56-.25,.87-.25,.33,0,.63,.08,.9,.25,.27,.16,.49,.38,.65,.65,.16,.27,.25,.57,.25,.9,0,.31-.08,.6-.25,.87-.16,.27-.38,.49-.65,.65-.27,.16-.57,.25-.9,.25-.31,0-.6-.08-.87-.25Zm-.35,15.53v-12.7l2.49-.29v12.99h-2.49Z"/><path d="M209.11,93.67c-1.01,.54-2.07,.81-3.19,.81-1.2,0-2.15-.34-2.84-1.03-.7-.69-1.04-1.72-1.04-3.09v-6.96h-2.55v-1.97h2.55v-2.87l2.49-.41v3.28h4.29l-.26,1.97h-4.03v6.55c0,1.62,.6,2.44,1.8,2.44,.35,0,.69-.04,1.02-.12,.33-.08,.69-.2,1.07-.38l.7,1.77Z"/><path d="M221.49,82.01c.7,.62,1.04,1.62,1.04,3.02v9.11h-2.49v-8.09c0-.72-.07-1.27-.22-1.67-.14-.4-.39-.68-.72-.86-.34-.17-.8-.26-1.38-.26s-1.19,.08-1.84,.23c-.65,.16-1.25,.37-1.81,.64v10h-2.49v-19.95l2.49-.29v8.44c1.58-.83,3.11-1.25,4.58-1.25,1.2,0,2.15,.31,2.84,.93Z"/><path d="M241.95,82.1c.74,.68,1.12,1.74,1.12,3.19v8.85h-2.26l-.15-1.1c-1.33,.97-2.87,1.45-4.61,1.45-.73,0-1.39-.14-1.97-.42-.58-.28-1.03-.68-1.35-1.19-.32-.51-.48-1.1-.48-1.75,0-1.06,.38-1.95,1.13-2.65,.75-.71,1.76-1.22,3.02-1.55,1.26-.33,2.65-.51,4.18-.55v-.64c0-.87-.17-1.5-.52-1.9-.35-.4-.94-.59-1.77-.59-1.41,0-2.88,.5-4.41,1.51l-1.1-1.74c1.86-1.28,3.8-1.91,5.83-1.91,1.49,0,2.6,.34,3.35,1.01Zm-6.58,9.89c.3,.25,.75,.38,1.35,.38,1.31,0,2.6-.39,3.86-1.16v-3.02c-1.68,.08-3.04,.34-4.09,.78-1.04,.45-1.57,1.07-1.57,1.89,0,.5,.15,.88,.45,1.13Z"/><path d="M257.84,76.81c-.36,.47-.54,1.15-.54,2.02v2.61h3.94l-.26,1.97h-3.68v10.73h-2.49v-10.73h-2.32v-1.97h2.32v-2.55c0-.97,.18-1.82,.55-2.55,.37-.73,.89-1.3,1.58-1.71,.69-.41,1.49-.61,2.42-.61,1.06,0,2.04,.16,2.93,.49l-.64,1.97c-.72-.25-1.44-.38-2.18-.38s-1.28,.24-1.64,.71Z"/><path d="M264.56,93.6c-.91-.59-1.59-1.39-2.03-2.41-.45-1.02-.67-2.16-.67-3.44,0-1.55,.29-2.82,.87-3.81,.58-1,1.36-1.72,2.35-2.18,.99-.45,2.11-.68,3.36-.68,1.35,0,2.48,.29,3.39,.88,.91,.59,1.58,1.39,2.03,2.39,.44,1.01,.67,2.15,.67,3.42,0,1.57-.29,2.85-.87,3.84s-1.36,1.72-2.35,2.17c-.99,.45-2.11,.68-3.36,.68-1.35,0-2.48-.29-3.39-.88Zm7.37-5.84c0-1.41-.3-2.54-.91-3.38-.61-.84-1.52-1.26-2.74-1.26-1.35,0-2.32,.41-2.91,1.23-.59,.82-.88,1.96-.88,3.41s.31,2.57,.93,3.42c.62,.85,1.55,1.28,2.78,1.28,2.49,0,3.74-1.57,3.74-4.7Z"/><path d="M288.34,81.14v12.99h-2.23l-.15-.96c-1.49,.87-3,1.31-4.52,1.31-1.18,0-2.14-.33-2.89-1-.74-.67-1.12-1.68-1.12-3.03v-9.02l2.49-.29v8.58c0,.64,.08,1.15,.23,1.52,.15,.38,.41,.65,.75,.81,.35,.16,.83,.25,1.45,.25,.93,0,2.09-.36,3.48-1.07v-9.8l2.49-.29Z"/><path d="M299.5,81.14c.27,.04,.56,.1,.87,.17l-.46,2.58c-.66-.23-1.26-.35-1.8-.35-.62,0-1.19,.14-1.71,.41-.52,.27-1.03,.78-1.51,1.54v8.64h-2.49v-12.73l2.49-.26v1.83c.48-.62,1.04-1.09,1.68-1.41,.64-.32,1.31-.48,2.03-.48,.33,0,.63,.02,.9,.06Z"/><path d="M301.97,87.52v-2.32h8.12v2.32h-8.12Z"/><path d="M323.92,88.22h-8.84c.02,1.45,.37,2.5,1.06,3.16,.69,.66,1.57,.99,2.65,.99,.77,0,1.44-.1,2.02-.29,.57-.19,1.2-.49,1.9-.9l.96,1.77c-1.59,1.02-3.25,1.54-4.99,1.54-1.86,0-3.34-.52-4.45-1.55-1.11-1.03-1.67-2.67-1.67-4.92,0-1.28,.23-2.44,.7-3.48s1.16-1.88,2.07-2.51c.92-.63,2.04-.94,3.38-.94,1.12,0,2.08,.23,2.87,.68,.79,.45,1.39,1.08,1.8,1.87,.41,.79,.61,1.7,.61,2.73l-.06,1.86Zm-7.58-4.29c-.57,.6-.94,1.42-1.12,2.46h6.32v-.12c0-1.08-.25-1.89-.74-2.44-.49-.54-1.19-.81-2.1-.81-1.01,0-1.79,.3-2.36,.9Z"/><path d="M338.04,85.12v9.02h-2.49v-8.09c0-.72-.07-1.27-.22-1.67-.15-.4-.39-.68-.73-.86-.34-.17-.8-.26-1.38-.26s-1.2,.08-1.86,.25c-.66,.16-1.28,.38-1.86,.65v9.98h-2.49v-12.7l2.49-.29v1.22c1.62-.85,3.17-1.28,4.64-1.28,2.59,0,3.89,1.34,3.89,4.03Z"/><path d="M351.89,92.6c.73,.25,1.27,.61,1.64,1.07,.37,.46,.55,1.06,.55,1.8,0,.89-.29,1.67-.86,2.33s-1.39,1.18-2.45,1.54c-1.06,.36-2.33,.54-3.8,.54-1.88,0-3.37-.3-4.5-.9s-1.68-1.5-1.68-2.7c0-.73,.18-1.34,.54-1.83,.36-.48,.87-.94,1.55-1.36-.58-.41-.87-.93-.87-1.57,0-.39,.11-.74,.33-1.07,.22-.33,.58-.67,1.06-1.02-.7-.39-1.22-.9-1.57-1.54-.35-.64-.52-1.37-.52-2.2,0-1.06,.27-1.94,.8-2.64,.53-.7,1.23-1.2,2.1-1.51,.87-.31,1.84-.46,2.9-.46,.54,0,1.1,.05,1.68,.15l4.32-1.8,.87,2.03-2.96,.84c.56,.43,.98,.93,1.25,1.52,.27,.59,.41,1.22,.41,1.9,0,1.57-.55,2.71-1.64,3.42-1.09,.72-2.48,1.07-4.16,1.07-.75,0-1.4-.07-1.94-.2-.25,.27-.38,.57-.38,.9,0,.21,.08,.38,.23,.51,.15,.13,.41,.22,.75,.29s.84,.13,1.48,.19l2.06,.17c1.14,.1,2.07,.27,2.8,.52Zm-1.71,4.84c.84-.33,1.26-.87,1.26-1.62,0-.35-.12-.63-.35-.86-.23-.22-.59-.4-1.07-.52-.48-.13-1.12-.23-1.91-.3l-2.06-.17c-.62-.06-1.19-.15-1.71-.26-.37,.33-.65,.68-.86,1.06-.2,.38-.3,.76-.3,1.15,0,.68,.31,1.18,.93,1.52,.62,.34,1.6,.51,2.93,.51,1.26,0,2.31-.16,3.15-.49Zm-5.6-13.75c-.51,.5-.77,1.16-.77,1.97s.26,1.49,.78,1.97c.52,.48,1.34,.73,2.46,.73,2.09,0,3.13-.87,3.13-2.61,0-.87-.28-1.56-.83-2.06-.55-.5-1.34-.75-2.36-.75-1.1,0-1.91,.25-2.42,.75Z"/><path d="M356.74,78.61c-.27-.16-.49-.38-.65-.65-.16-.27-.25-.56-.25-.87,0-.33,.08-.63,.25-.9,.16-.27,.38-.49,.65-.65,.27-.16,.56-.25,.87-.25,.33,0,.63,.08,.9,.25,.27,.16,.49,.38,.65,.65,.16,.27,.25,.57,.25,.9,0,.31-.08,.6-.25,.87-.16,.27-.38,.49-.65,.65-.27,.16-.57,.25-.9,.25-.31,0-.6-.08-.87-.25Zm-.35,15.53v-12.7l2.49-.29v12.99h-2.49Z"/><path d="M373.97,85.12v9.02h-2.49v-8.09c0-.72-.07-1.27-.22-1.67-.15-.4-.39-.68-.73-.86-.34-.17-.8-.26-1.38-.26s-1.2,.08-1.86,.25c-.66,.16-1.28,.38-1.86,.65v9.98h-2.49v-12.7l2.49-.29v1.22c1.62-.85,3.17-1.28,4.64-1.28,2.59,0,3.89,1.34,3.89,4.03Z"/><path d="M388.24,88.22h-8.84c.02,1.45,.37,2.5,1.06,3.16,.69,.66,1.57,.99,2.65,.99,.77,0,1.44-.1,2.02-.29,.57-.19,1.2-.49,1.9-.9l.96,1.77c-1.59,1.02-3.25,1.54-4.99,1.54-1.86,0-3.34-.52-4.45-1.55-1.11-1.03-1.67-2.67-1.67-4.92,0-1.28,.23-2.44,.7-3.48s1.16-1.88,2.07-2.51c.92-.63,2.04-.94,3.38-.94,1.12,0,2.08,.23,2.87,.68,.79,.45,1.39,1.08,1.8,1.87,.41,.79,.61,1.7,.61,2.73l-.06,1.86Zm-7.58-4.29c-.57,.6-.94,1.42-1.12,2.46h6.32v-.12c0-1.08-.25-1.89-.74-2.44-.49-.54-1.19-.81-2.1-.81-1.01,0-1.79,.3-2.36,.9Z"/><path d="M390.09,97.64c.91-1.26,1.36-2.2,1.36-2.84,0-.17-.04-.31-.13-.42-.09-.11-.22-.23-.39-.36-.25-.19-.44-.38-.57-.57-.13-.18-.19-.47-.19-.86,0-.5,.18-.93,.54-1.29,.36-.36,.8-.54,1.32-.54s.94,.19,1.3,.57,.55,.92,.55,1.64c0,1.64-.79,3.46-2.38,5.45l-1.42-.78Z"/><path d="M404.36,92.96c-1.08-1.02-1.62-2.63-1.62-4.86,0-1.6,.31-2.93,.93-3.99,.62-1.05,1.42-1.82,2.39-2.31,.98-.48,2.02-.72,3.12-.72,1.28,0,2.61,.37,4,1.1l-.93,1.91c-.68-.33-1.26-.56-1.75-.7s-1-.2-1.52-.2c-1.14,0-2.03,.43-2.67,1.29-.64,.86-.96,2.06-.96,3.61s.32,2.59,.97,3.25c.65,.66,1.52,.99,2.62,.99,.66,0,1.25-.1,1.78-.3s1.12-.49,1.75-.86l.99,1.77c-.72,.46-1.46,.84-2.22,1.12-.76,.28-1.61,.42-2.54,.42-1.82,0-3.27-.51-4.35-1.52Z"/><path d="M424.44,82.1c.74,.68,1.12,1.74,1.12,3.19v8.85h-2.26l-.15-1.1c-1.33,.97-2.87,1.45-4.61,1.45-.73,0-1.39-.14-1.97-.42-.58-.28-1.03-.68-1.35-1.19-.32-.51-.48-1.1-.48-1.75,0-1.06,.38-1.95,1.13-2.65,.75-.71,1.76-1.22,3.02-1.55,1.26-.33,2.65-.51,4.18-.55v-.64c0-.87-.17-1.5-.52-1.9-.35-.4-.94-.59-1.77-.59-1.41,0-2.88,.5-4.41,1.51l-1.1-1.74c1.86-1.28,3.8-1.91,5.83-1.91,1.49,0,2.6,.34,3.35,1.01Zm-6.58,9.89c.3,.25,.75,.38,1.35,.38,1.31,0,2.6-.39,3.86-1.16v-3.02c-1.68,.08-3.04,.34-4.09,.78-1.04,.45-1.57,1.07-1.57,1.89,0,.5,.15,.88,.45,1.13Z"/><path d="M436.58,81.14c.27,.04,.56,.1,.87,.17l-.46,2.58c-.66-.23-1.26-.35-1.8-.35-.62,0-1.19,.14-1.71,.41-.52,.27-1.03,.78-1.51,1.54v8.64h-2.49v-12.73l2.49-.26v1.83c.48-.62,1.04-1.09,1.68-1.41,.64-.32,1.31-.48,2.03-.48,.33,0,.63,.02,.9,.06Z"/><path d="M449.48,81.91c.75,.55,1.31,1.31,1.68,2.26,.37,.96,.55,2.03,.55,3.23,0,1.68-.36,3.05-1.09,4.1-.73,1.05-1.64,1.81-2.74,2.28-1.1,.46-2.24,.7-3.42,.7-1.3,0-2.81-.28-4.55-.84v-19.46l2.49-.29v8.32c1.37-.75,2.79-1.13,4.26-1.13,1.12,0,2.06,.28,2.81,.83Zm-1.74,9.34c.87-.78,1.31-2.08,1.31-3.9,0-1.31-.25-2.33-.75-3.04-.5-.71-1.28-1.07-2.32-1.07-1.14,0-2.33,.28-3.57,.84v8.12c.73,.15,1.39,.23,1.97,.23,1.37,0,2.49-.39,3.36-1.17Z"/><path d="M456.44,93.6c-.91-.59-1.59-1.39-2.03-2.41-.45-1.02-.67-2.16-.67-3.44,0-1.55,.29-2.82,.87-3.81,.58-1,1.36-1.72,2.35-2.18,.99-.45,2.11-.68,3.36-.68,1.35,0,2.48,.29,3.39,.88,.91,.59,1.58,1.39,2.03,2.39,.44,1.01,.67,2.15,.67,3.42,0,1.57-.29,2.85-.87,3.84s-1.36,1.72-2.35,2.17c-.99,.45-2.11,.68-3.36,.68-1.35,0-2.48-.29-3.39-.88Zm7.37-5.84c0-1.41-.3-2.54-.91-3.38-.61-.84-1.52-1.26-2.74-1.26-1.35,0-2.32,.41-2.91,1.23-.59,.82-.88,1.96-.88,3.41s.31,2.57,.93,3.42c.62,.85,1.55,1.28,2.78,1.28,2.49,0,3.74-1.57,3.74-4.7Z"/><path d="M480.48,85.12v9.02h-2.49v-8.09c0-.72-.07-1.27-.22-1.67-.15-.4-.39-.68-.73-.86-.34-.17-.8-.26-1.38-.26s-1.2,.08-1.86,.25c-.66,.16-1.28,.38-1.86,.65v9.98h-2.49v-12.7l2.49-.29v1.22c1.62-.85,3.17-1.28,4.64-1.28,2.59,0,3.89,1.34,3.89,4.03Z"/><path d="M483.82,87.52v-2.32h8.12v2.32h-8.12Z"/><path d="M501.57,84.36l8.7,9.6v.17h-3.22l-8.61-9.6v9.6h-2.67v-18.79h2.67v8.96l8.44-8.96h3.04v.17l-8.35,8.85Z"/><path d="M522.36,88.22h-8.84c.02,1.45,.37,2.5,1.06,3.16,.69,.66,1.57,.99,2.65,.99,.77,0,1.44-.1,2.02-.29,.57-.19,1.2-.49,1.9-.9l.96,1.77c-1.59,1.02-3.25,1.54-4.99,1.54-1.86,0-3.34-.52-4.45-1.55-1.11-1.03-1.67-2.67-1.67-4.92,0-1.28,.23-2.44,.7-3.48s1.16-1.88,2.07-2.51c.92-.63,2.04-.94,3.38-.94,1.12,0,2.08,.23,2.87,.68,.79,.45,1.39,1.08,1.8,1.87,.41,.79,.61,1.7,.61,2.73l-.06,1.86Zm-7.58-4.29c-.57,.6-.94,1.42-1.12,2.46h6.32v-.12c0-1.08-.25-1.89-.74-2.44-.49-.54-1.19-.81-2.1-.81-1.01,0-1.79,.3-2.36,.9Z"/><path d="M535.82,81.43v.17l-5.07,12.53h-2.29l-5.19-12.53v-.17h2.73l3.07,8.18c.08,.19,.23,.64,.46,1.33l.17,.55c.19-.66,.4-1.29,.61-1.88l2.9-8.18h2.61Z"/><path d="M538.11,94.14v-19.95l2.49-.29v20.24h-2.49Z"/><path d="M553.2,82.1c.74,.68,1.12,1.74,1.12,3.19v8.85h-2.26l-.15-1.1c-1.33,.97-2.87,1.45-4.61,1.45-.73,0-1.39-.14-1.97-.42-.58-.28-1.03-.68-1.35-1.19-.32-.51-.48-1.1-.48-1.75,0-1.06,.38-1.95,1.13-2.65,.75-.71,1.76-1.22,3.02-1.55,1.26-.33,2.65-.51,4.18-.55v-.64c0-.87-.17-1.5-.52-1.9-.35-.4-.94-.59-1.77-.59-1.41,0-2.88,.5-4.41,1.51l-1.1-1.74c1.86-1.28,3.8-1.91,5.83-1.91,1.49,0,2.6,.34,3.35,1.01Zm-6.58,9.89c.3,.25,.75,.38,1.35,.38,1.31,0,2.6-.39,3.86-1.16v-3.02c-1.68,.08-3.04,.34-4.09,.78-1.04,.45-1.57,1.07-1.57,1.89,0,.5,.15,.88,.45,1.13Z"/><path d="M565.34,81.14c.27,.04,.56,.1,.87,.17l-.46,2.58c-.66-.23-1.26-.35-1.8-.35-.62,0-1.19,.14-1.71,.41-.52,.27-1.03,.78-1.51,1.54v8.64h-2.49v-12.73l2.49-.26v1.83c.48-.62,1.04-1.09,1.68-1.41,.64-.32,1.31-.48,2.03-.48,.33,0,.63,.02,.9,.06Z"/><path d="M592.62,81.43v.17l-3.83,12.53h-2.49l-2.32-7.77c-.31-1.08-.51-1.85-.61-2.29-.08,.43-.27,1.19-.58,2.29l-2.32,7.77h-2.35l-4.18-12.53v-.17h2.73l2.29,7.98c.1,.33,.24,.92,.43,1.77,.12-.68,.25-1.27,.41-1.77l2.32-7.98h2.73l2.32,7.98c.15,.54,.32,1.23,.49,2.06,.14-.81,.27-1.5,.41-2.06l2.12-7.98h2.44Z"/><path d="M595.35,78.61c-.27-.16-.49-.38-.65-.65-.16-.27-.25-.56-.25-.87,0-.33,.08-.63,.25-.9,.16-.27,.38-.49,.65-.65,.27-.16,.56-.25,.87-.25,.33,0,.63,.08,.9,.25,.27,.16,.49,.38,.65,.65,.16,.27,.25,.57,.25,.9,0,.31-.08,.6-.25,.87-.16,.27-.38,.49-.65,.65-.27,.16-.57,.25-.9,.25-.31,0-.6-.08-.87-.25Zm-.35,15.53v-12.7l2.49-.29v12.99h-2.49Z"/><path d="M612.58,85.12v9.02h-2.49v-8.09c0-.72-.07-1.27-.22-1.67-.15-.4-.39-.68-.73-.86-.34-.17-.8-.26-1.38-.26s-1.2,.08-1.86,.25c-.66,.16-1.28,.38-1.86,.65v9.98h-2.49v-12.7l2.49-.29v1.22c1.62-.85,3.17-1.28,4.64-1.28,2.59,0,3.89,1.34,3.89,4.03Z"/><path d="M626.42,92.6c.73,.25,1.27,.61,1.64,1.07,.37,.46,.55,1.06,.55,1.8,0,.89-.29,1.67-.86,2.33s-1.39,1.18-2.45,1.54c-1.06,.36-2.33,.54-3.8,.54-1.88,0-3.37-.3-4.5-.9s-1.68-1.5-1.68-2.7c0-.73,.18-1.34,.54-1.83,.36-.48,.87-.94,1.55-1.36-.58-.41-.87-.93-.87-1.57,0-.39,.11-.74,.33-1.07,.22-.33,.58-.67,1.06-1.02-.7-.39-1.22-.9-1.57-1.54-.35-.64-.52-1.37-.52-2.2,0-1.06,.27-1.94,.8-2.64,.53-.7,1.23-1.2,2.1-1.51,.87-.31,1.84-.46,2.9-.46,.54,0,1.1,.05,1.68,.15l4.32-1.8,.87,2.03-2.96,.84c.56,.43,.98,.93,1.25,1.52,.27,.59,.41,1.22,.41,1.9,0,1.57-.55,2.71-1.64,3.42-1.09,.72-2.48,1.07-4.16,1.07-.75,0-1.4-.07-1.94-.2-.25,.27-.38,.57-.38,.9,0,.21,.08,.38,.23,.51,.15,.13,.41,.22,.75,.29s.84,.13,1.48,.19l2.06,.17c1.14,.1,2.07,.27,2.8,.52Zm-1.71,4.84c.84-.33,1.26-.87,1.26-1.62,0-.35-.12-.63-.35-.86-.23-.22-.59-.4-1.07-.52-.48-.13-1.12-.23-1.91-.3l-2.06-.17c-.62-.06-1.19-.15-1.71-.26-.37,.33-.65,.68-.86,1.06-.2,.38-.3,.76-.3,1.15,0,.68,.31,1.18,.93,1.52,.62,.34,1.6,.51,2.93,.51,1.26,0,2.31-.16,3.15-.49Zm-5.6-13.75c-.51,.5-.77,1.16-.77,1.97s.26,1.49,.78,1.97c.52,.48,1.34,.73,2.46,.73,2.09,0,3.13-.87,3.13-2.61,0-.87-.28-1.56-.83-2.06-.55-.5-1.34-.75-2.36-.75-1.1,0-1.91,.25-2.42,.75Z"/><path d="M638.97,94.06c-.91-.28-1.75-.71-2.52-1.29l1.1-1.77c1.41,1.01,2.88,1.51,4.41,1.51,.87,0,1.54-.15,2-.45,.46-.3,.7-.74,.7-1.32,0-.46-.21-.86-.62-1.2-.42-.34-1.15-.64-2.19-.91l-.9-.23c-1.35-.35-2.34-.81-2.97-1.38-.63-.57-.94-1.33-.94-2.28,0-.71,.2-1.35,.61-1.9,.41-.55,.97-.98,1.7-1.29,.73-.31,1.54-.46,2.45-.46s1.71,.1,2.51,.3,1.62,.55,2.45,1.03l-1.02,1.77c-.79-.43-1.48-.72-2.06-.88-.58-.16-1.2-.25-1.86-.25-.7,0-1.24,.14-1.64,.42-.4,.28-.59,.65-.59,1.12,0,.41,.16,.72,.48,.94,.32,.22,.87,.44,1.67,.65l.9,.23c1.1,.29,1.99,.62,2.65,.99,.67,.37,1.15,.81,1.46,1.32,.31,.51,.46,1.13,.46,1.84,0,.77-.2,1.46-.59,2.04-.4,.59-.98,1.05-1.75,1.38-.77,.33-1.71,.49-2.81,.49s-2.17-.14-3.07-.42Z"/><path d="M657.84,93.67c-1.01,.54-2.07,.81-3.19,.81-1.2,0-2.15-.34-2.84-1.03-.7-.69-1.04-1.72-1.04-3.09v-6.96h-2.55v-1.97h2.55v-2.87l2.49-.41v3.28h4.29l-.26,1.97h-4.03v6.55c0,1.62,.6,2.44,1.8,2.44,.35,0,.69-.04,1.02-.12,.33-.08,.69-.2,1.07-.38l.7,1.77Z"/><path d="M667.41,81.14c.27,.04,.56,.1,.87,.17l-.46,2.58c-.66-.23-1.26-.35-1.8-.35-.62,0-1.19,.14-1.71,.41-.52,.27-1.03,.78-1.51,1.54v8.64h-2.49v-12.73l2.49-.26v1.83c.48-.62,1.04-1.09,1.68-1.41,.64-.32,1.31-.48,2.03-.48,.33,0,.63,.02,.9,.06Z"/><path d="M678.85,82.1c.74,.68,1.12,1.74,1.12,3.19v8.85h-2.26l-.15-1.1c-1.33,.97-2.87,1.45-4.61,1.45-.73,0-1.39-.14-1.97-.42-.58-.28-1.03-.68-1.35-1.19-.32-.51-.48-1.1-.48-1.75,0-1.06,.38-1.95,1.13-2.65,.75-.71,1.76-1.22,3.02-1.55,1.26-.33,2.65-.51,4.18-.55v-.64c0-.87-.17-1.5-.52-1.9-.35-.4-.94-.59-1.77-.59-1.41,0-2.88,.5-4.41,1.51l-1.1-1.74c1.86-1.28,3.8-1.91,5.83-1.91,1.49,0,2.6,.34,3.35,1.01Zm-6.58,9.89c.3,.25,.75,.38,1.35,.38,1.31,0,2.6-.39,3.86-1.16v-3.02c-1.68,.08-3.04,.34-4.09,.78-1.04,.45-1.57,1.07-1.57,1.89,0,.5,.15,.88,.45,1.13Z"/><path d="M693.37,81.96c.79,.58,1.38,1.35,1.75,2.32s.57,2.02,.57,3.16c0,1.47-.29,2.74-.86,3.8-.57,1.06-1.35,1.87-2.33,2.42s-2.11,.83-3.36,.83c-.95,0-1.87-.13-2.75-.38v5.42h-2.49v-18.1l2.49-.29v1.13c.7-.39,1.39-.68,2.07-.88,.69-.2,1.33-.3,1.93-.3,1.2,0,2.19,.29,2.99,.87Zm-2.33,10.02c.61-.36,1.09-.91,1.45-1.67,.36-.75,.54-1.69,.54-2.81,0-1.45-.29-2.52-.87-3.22-.58-.7-1.4-1.04-2.46-1.04-1.12,0-2.22,.32-3.31,.96v7.89c.91,.29,1.76,.44,2.55,.44s1.49-.18,2.1-.54Z"/><path d="M708.22,81.96c.79,.58,1.38,1.35,1.75,2.32s.57,2.02,.57,3.16c0,1.47-.29,2.74-.86,3.8-.57,1.06-1.35,1.87-2.33,2.42s-2.11,.83-3.36,.83c-.95,0-1.87-.13-2.75-.38v5.42h-2.49v-18.1l2.49-.29v1.13c.7-.39,1.39-.68,2.07-.88,.69-.2,1.33-.3,1.93-.3,1.2,0,2.19,.29,2.99,.87Zm-2.33,10.02c.61-.36,1.09-.91,1.45-1.67,.36-.75,.54-1.69,.54-2.81,0-1.45-.29-2.52-.87-3.22-.58-.7-1.4-1.04-2.46-1.04-1.12,0-2.22,.32-3.31,.96v7.89c.91,.29,1.76,.44,2.55,.44s1.49-.18,2.1-.54Z"/><path d="M723.93,88.22h-8.84c.02,1.45,.37,2.5,1.06,3.16,.69,.66,1.57,.99,2.65,.99,.77,0,1.44-.1,2.02-.29,.57-.19,1.2-.49,1.9-.9l.96,1.77c-1.59,1.02-3.25,1.54-4.99,1.54-1.86,0-3.34-.52-4.45-1.55-1.11-1.03-1.67-2.67-1.67-4.92,0-1.28,.23-2.44,.7-3.48s1.16-1.88,2.07-2.51c.92-.63,2.04-.94,3.38-.94,1.12,0,2.08,.23,2.87,.68,.79,.45,1.39,1.08,1.8,1.87,.41,.79,.61,1.7,.61,2.73l-.06,1.86Zm-7.58-4.29c-.57,.6-.94,1.42-1.12,2.46h6.32v-.12c0-1.08-.25-1.89-.74-2.44-.49-.54-1.19-.81-2.1-.81-1.01,0-1.79,.3-2.36,.9Z"/><path d="M737.82,73.89v20.24h-2.26l-.12-.93c-.7,.41-1.4,.72-2.12,.94-.72,.22-1.38,.33-2,.33-1.12,0-2.08-.26-2.87-.77-.79-.51-1.4-1.25-1.81-2.2-.42-.96-.62-2.08-.62-3.38,0-1.47,.28-2.74,.86-3.8,.57-1.06,1.35-1.87,2.33-2.42,.99-.55,2.11-.83,3.36-.83,.83,0,1.75,.13,2.76,.38v-7.28l2.49-.29Zm-8.26,17.4c.58,.7,1.4,1.04,2.46,1.04,1.12,0,2.22-.32,3.31-.96v-7.89c-.87-.29-1.72-.44-2.55-.44s-1.49,.18-2.1,.54c-.61,.36-1.09,.91-1.45,1.67-.36,.75-.54,1.69-.54,2.81,0,1.45,.29,2.52,.87,3.22Z"/><path d="M756.88,93.67c-1.01,.54-2.07,.81-3.19,.81-1.2,0-2.15-.34-2.84-1.03-.7-.69-1.04-1.72-1.04-3.09v-6.96h-2.55v-1.97h2.55v-2.87l2.49-.41v3.28h4.29l-.26,1.97h-4.03v6.55c0,1.62,.6,2.44,1.8,2.44,.35,0,.69-.04,1.02-.12,.33-.08,.69-.2,1.07-.38l.7,1.77Z"/><path d="M760.73,93.6c-.91-.59-1.59-1.39-2.03-2.41-.45-1.02-.67-2.16-.67-3.44,0-1.55,.29-2.82,.87-3.81,.58-1,1.36-1.72,2.35-2.18,.99-.45,2.11-.68,3.36-.68,1.35,0,2.48,.29,3.39,.88,.91,.59,1.58,1.39,2.03,2.39,.44,1.01,.67,2.15,.67,3.42,0,1.57-.29,2.85-.87,3.84s-1.36,1.72-2.35,2.17c-.99,.45-2.11,.68-3.36,.68-1.35,0-2.48-.29-3.39-.88Zm7.37-5.84c0-1.41-.3-2.54-.91-3.38-.61-.84-1.52-1.26-2.74-1.26-1.35,0-2.32,.41-2.91,1.23-.59,.82-.88,1.96-.88,3.41s.31,2.57,.93,3.42c.62,.85,1.55,1.28,2.78,1.28,2.49,0,3.74-1.57,3.74-4.7Z"/><path d="M788.75,93.67c-1.01,.54-2.07,.81-3.19,.81-1.2,0-2.15-.34-2.84-1.03-.7-.69-1.04-1.72-1.04-3.09v-6.96h-2.55v-1.97h2.55v-2.87l2.49-.41v3.28h4.29l-.26,1.97h-4.03v6.55c0,1.62,.6,2.44,1.8,2.44,.35,0,.69-.04,1.02-.12,.33-.08,.69-.2,1.07-.38l.7,1.77Z"/><path d="M801.13,82.01c.7,.62,1.04,1.62,1.04,3.02v9.11h-2.49v-8.09c0-.72-.07-1.27-.22-1.67-.14-.4-.39-.68-.72-.86-.34-.17-.8-.26-1.38-.26s-1.19,.08-1.84,.23c-.65,.16-1.25,.37-1.81,.64v10h-2.49v-19.95l2.49-.29v8.44c1.58-.83,3.11-1.25,4.58-1.25,1.2,0,2.15,.31,2.84,.93Z"/><path d="M816.44,88.22h-8.84c.02,1.45,.37,2.5,1.06,3.16,.69,.66,1.57,.99,2.65,.99,.77,0,1.44-.1,2.02-.29,.57-.19,1.2-.49,1.9-.9l.96,1.77c-1.59,1.02-3.25,1.54-4.99,1.54-1.86,0-3.34-.52-4.45-1.55-1.11-1.03-1.67-2.67-1.67-4.92,0-1.28,.23-2.44,.7-3.48s1.16-1.88,2.07-2.51c.92-.63,2.04-.94,3.38-.94,1.12,0,2.08,.23,2.87,.68,.79,.45,1.39,1.08,1.8,1.87,.41,.79,.61,1.7,.61,2.73l-.06,1.86Zm-7.58-4.29c-.57,.6-.94,1.42-1.12,2.46h6.32v-.12c0-1.08-.25-1.89-.74-2.44-.49-.54-1.19-.81-2.1-.81-1.01,0-1.79,.3-2.36,.9Z"/><path d="M819.89,78.61c-.27-.16-.49-.38-.65-.65-.16-.27-.25-.56-.25-.87,0-.33,.08-.63,.25-.9,.16-.27,.38-.49,.65-.65,.27-.16,.56-.25,.87-.25,.33,0,.63,.08,.9,.25,.27,.16,.49,.38,.65,.65,.16,.27,.25,.57,.25,.9,0,.31-.08,.6-.25,.87-.16,.27-.38,.49-.65,.65-.27,.16-.57,.25-.9,.25-.31,0-.6-.08-.87-.25Zm-.35,15.53v-12.7l2.49-.29v12.99h-2.49Z"/><path d="M833.2,81.14c.27,.04,.56,.1,.87,.17l-.46,2.58c-.66-.23-1.26-.35-1.8-.35-.62,0-1.19,.14-1.71,.41-.52,.27-1.03,.78-1.51,1.54v8.64h-2.49v-12.73l2.49-.26v1.83c.48-.62,1.04-1.09,1.68-1.41,.64-.32,1.31-.48,2.03-.48,.33,0,.63,.02,.9,.06Z"/><path d="M11.74,116.71c.75,.55,1.31,1.31,1.68,2.26,.37,.96,.55,2.03,.55,3.23,0,1.68-.36,3.05-1.09,4.1-.73,1.05-1.64,1.81-2.74,2.28-1.1,.46-2.24,.7-3.42,.7-1.3,0-2.81-.28-4.55-.84v-19.46l2.49-.29v8.32c1.37-.75,2.79-1.13,4.26-1.13,1.12,0,2.06,.28,2.81,.83Zm-1.74,9.34c.87-.78,1.31-2.08,1.31-3.9,0-1.31-.25-2.33-.75-3.04-.5-.71-1.28-1.07-2.32-1.07-1.14,0-2.33,.28-3.57,.84v8.12c.73,.15,1.39,.23,1.97,.23,1.37,0,2.49-.39,3.36-1.17Z"/><path d="M25.56,116.9c.74,.68,1.12,1.74,1.12,3.19v8.85h-2.26l-.15-1.1c-1.33,.97-2.87,1.45-4.61,1.45-.73,0-1.39-.14-1.97-.42-.58-.28-1.03-.68-1.35-1.19-.32-.51-.48-1.1-.48-1.75,0-1.06,.38-1.95,1.13-2.65,.75-.71,1.76-1.22,3.02-1.55,1.26-.33,2.65-.51,4.18-.55v-.64c0-.87-.17-1.5-.52-1.9-.35-.4-.94-.59-1.77-.59-1.41,0-2.88,.5-4.41,1.51l-1.1-1.74c1.86-1.28,3.8-1.91,5.83-1.91,1.49,0,2.6,.34,3.35,1.01Zm-6.58,9.89c.3,.25,.75,.38,1.35,.38,1.31,0,2.6-.39,3.86-1.16v-3.02c-1.68,.08-3.04,.34-4.09,.78-1.04,.45-1.57,1.07-1.57,1.89,0,.5,.15,.88,.45,1.13Z"/><path d="M31.2,127.76c-1.08-1.02-1.62-2.63-1.62-4.86,0-1.6,.31-2.93,.93-3.99,.62-1.05,1.42-1.82,2.39-2.31,.98-.48,2.02-.72,3.12-.72,1.28,0,2.61,.37,4,1.1l-.93,1.91c-.68-.33-1.26-.56-1.75-.7s-1-.2-1.52-.2c-1.14,0-2.03,.43-2.67,1.29-.64,.86-.96,2.06-.96,3.61s.32,2.59,.97,3.25c.65,.66,1.52,.99,2.62,.99,.66,0,1.25-.1,1.78-.3s1.12-.49,1.75-.86l.99,1.77c-.72,.46-1.46,.84-2.22,1.12-.76,.28-1.61,.42-2.54,.42-1.82,0-3.27-.51-4.35-1.52Z"/><path d="M48.11,122.15l5.54,6.61v.17h-3.04l-5.37-6.64v6.64h-2.49v-19.95l2.49-.29v13.4l5.39-5.86h2.75v.17l-5.28,5.74Z"/><path d="M57.18,128.86c-.91-.28-1.75-.71-2.52-1.29l1.1-1.77c1.41,1.01,2.88,1.51,4.41,1.51,.87,0,1.54-.15,2-.45,.46-.3,.7-.74,.7-1.32,0-.46-.21-.86-.62-1.2-.42-.34-1.15-.64-2.19-.91l-.9-.23c-1.35-.35-2.34-.81-2.97-1.38-.63-.57-.94-1.33-.94-2.28,0-.71,.2-1.35,.61-1.9,.41-.55,.97-.98,1.7-1.29,.73-.31,1.54-.46,2.45-.46s1.71,.1,2.51,.3,1.62,.55,2.45,1.03l-1.02,1.77c-.79-.43-1.48-.72-2.06-.88-.58-.16-1.2-.25-1.86-.25-.7,0-1.24,.14-1.64,.42-.4,.28-.59,.65-.59,1.12,0,.41,.16,.72,.48,.94,.32,.22,.87,.44,1.67,.65l.9,.23c1.1,.29,1.99,.62,2.65,.99,.67,.37,1.15,.81,1.46,1.32,.31,.51,.46,1.13,.46,1.84,0,.77-.2,1.46-.59,2.04-.4,.59-.98,1.05-1.75,1.38-.77,.33-1.71,.49-2.81,.49s-2.17-.14-3.07-.42Z"/><path d="M68.38,128.98c-.29-.16-.52-.39-.68-.67-.16-.28-.25-.58-.25-.91s.08-.63,.25-.91c.16-.28,.39-.5,.68-.67,.29-.16,.6-.25,.93-.25s.64,.08,.93,.25c.29,.16,.52,.39,.68,.67,.16,.28,.25,.58,.25,.91s-.08,.63-.25,.91c-.16,.28-.39,.5-.68,.67s-.6,.25-.93,.25-.64-.08-.93-.25Z"/><path d="M95.23,110.14v2.32h-6.5v16.47h-2.67v-16.47h-6.52v-2.32h15.69Z"/><path d="M107.7,116.81c.7,.62,1.04,1.62,1.04,3.02v9.11h-2.49v-8.09c0-.72-.07-1.27-.22-1.67-.14-.4-.39-.68-.72-.86-.34-.17-.8-.26-1.38-.26s-1.19,.08-1.84,.23c-.65,.16-1.25,.37-1.81,.64v10h-2.49v-19.95l2.49-.29v8.44c1.58-.83,3.11-1.25,4.58-1.25,1.2,0,2.15,.31,2.84,.93Z"/><path d="M123.01,123.02h-8.84c.02,1.45,.37,2.5,1.06,3.16,.69,.66,1.57,.99,2.65,.99,.77,0,1.44-.1,2.02-.29,.57-.19,1.2-.49,1.9-.9l.96,1.77c-1.59,1.02-3.25,1.54-4.99,1.54-1.86,0-3.34-.52-4.45-1.55-1.11-1.03-1.67-2.67-1.67-4.92,0-1.28,.23-2.44,.7-3.48s1.16-1.88,2.07-2.51c.92-.63,2.04-.94,3.38-.94,1.12,0,2.08,.23,2.87,.68,.79,.45,1.39,1.08,1.8,1.87,.41,.79,.61,1.7,.61,2.73l-.06,1.86Zm-7.58-4.29c-.57,.6-.94,1.42-1.12,2.46h6.32v-.12c0-1.08-.25-1.89-.74-2.44-.49-.54-1.19-.81-2.1-.81-1.01,0-1.79,.3-2.36,.9Z"/><path d="M150.07,116.23v.17l-3.83,12.53h-2.49l-2.32-7.77c-.31-1.08-.51-1.85-.61-2.29-.08,.43-.27,1.19-.58,2.29l-2.32,7.77h-2.35l-4.18-12.53v-.17h2.73l2.29,7.98c.1,.33,.24,.92,.43,1.77,.12-.68,.25-1.27,.41-1.77l2.32-7.98h2.73l2.32,7.98c.15,.54,.32,1.23,.49,2.06,.14-.81,.27-1.5,.41-2.06l2.12-7.98h2.44Z"/><path d="M152.79,113.41c-.27-.16-.49-.38-.65-.65-.16-.27-.25-.56-.25-.87,0-.33,.08-.63,.25-.9,.16-.27,.38-.49,.65-.65,.27-.16,.56-.25,.87-.25,.33,0,.63,.08,.9,.25,.27,.16,.49,.38,.65,.65,.16,.27,.25,.57,.25,.9,0,.31-.08,.6-.25,.87-.16,.27-.38,.49-.65,.65-.27,.16-.57,.25-.9,.25-.31,0-.6-.08-.87-.25Zm-.35,15.53v-12.7l2.49-.29v12.99h-2.49Z"/><path d="M170.02,119.92v9.02h-2.49v-8.09c0-.72-.07-1.27-.22-1.67-.15-.4-.39-.68-.73-.86-.34-.17-.8-.26-1.38-.26s-1.2,.08-1.86,.25c-.66,.16-1.28,.38-1.86,.65v9.98h-2.49v-12.7l2.49-.29v1.22c1.62-.85,3.17-1.28,4.64-1.28,2.59,0,3.89,1.34,3.89,4.03Z"/><path d="M183.87,127.4c.73,.25,1.27,.61,1.64,1.07,.37,.46,.55,1.06,.55,1.8,0,.89-.29,1.67-.86,2.33s-1.39,1.18-2.45,1.54c-1.06,.36-2.33,.54-3.8,.54-1.88,0-3.37-.3-4.5-.9s-1.68-1.5-1.68-2.7c0-.73,.18-1.34,.54-1.83,.36-.48,.87-.94,1.55-1.36-.58-.41-.87-.93-.87-1.57,0-.39,.11-.74,.33-1.07,.22-.33,.58-.67,1.06-1.02-.7-.39-1.22-.9-1.57-1.54-.35-.64-.52-1.37-.52-2.2,0-1.06,.27-1.94,.8-2.64,.53-.7,1.23-1.2,2.1-1.51,.87-.31,1.84-.46,2.9-.46,.54,0,1.1,.05,1.68,.15l4.32-1.8,.87,2.03-2.96,.84c.56,.43,.98,.93,1.25,1.52,.27,.59,.41,1.22,.41,1.9,0,1.57-.55,2.71-1.64,3.42-1.09,.72-2.48,1.07-4.16,1.07-.75,0-1.4-.07-1.94-.2-.25,.27-.38,.57-.38,.9,0,.21,.08,.38,.23,.51,.15,.13,.41,.22,.75,.29s.84,.13,1.48,.19l2.06,.17c1.14,.1,2.07,.27,2.8,.52Zm-1.71,4.84c.84-.33,1.26-.87,1.26-1.62,0-.35-.12-.63-.35-.86-.23-.22-.59-.4-1.07-.52-.48-.13-1.12-.23-1.91-.3l-2.06-.17c-.62-.06-1.19-.15-1.71-.26-.37,.33-.65,.68-.86,1.06-.2,.38-.3,.76-.3,1.15,0,.68,.31,1.18,.93,1.52,.62,.34,1.6,.51,2.93,.51,1.26,0,2.31-.16,3.15-.49Zm-5.6-13.75c-.51,.5-.77,1.16-.77,1.97s.26,1.49,.78,1.97c.52,.48,1.34,.73,2.46,.73,2.09,0,3.13-.87,3.13-2.61,0-.87-.28-1.56-.83-2.06-.55-.5-1.34-.75-2.36-.75-1.1,0-1.91,.25-2.42,.75Z"/><path d="M189.45,128.86c-.91-.28-1.75-.71-2.52-1.29l1.1-1.77c1.41,1.01,2.88,1.51,4.41,1.51,.87,0,1.54-.15,2-.45,.46-.3,.7-.74,.7-1.32,0-.46-.21-.86-.62-1.2-.42-.34-1.15-.64-2.19-.91l-.9-.23c-1.35-.35-2.34-.81-2.97-1.38-.63-.57-.94-1.33-.94-2.28,0-.71,.2-1.35,.61-1.9,.41-.55,.97-.98,1.7-1.29,.73-.31,1.54-.46,2.45-.46s1.71,.1,2.51,.3,1.62,.55,2.45,1.03l-1.02,1.77c-.79-.43-1.48-.72-2.06-.88-.58-.16-1.2-.25-1.86-.25-.7,0-1.24,.14-1.64,.42-.4,.28-.59,.65-.59,1.12,0,.41,.16,.72,.48,.94,.32,.22,.87,.44,1.67,.65l.9,.23c1.1,.29,1.99,.62,2.65,.99,.67,.37,1.15,.81,1.46,1.32,.31,.51,.46,1.13,.46,1.84,0,.77-.2,1.46-.59,2.04-.4,.59-.98,1.05-1.75,1.38-.77,.33-1.71,.49-2.81,.49s-2.17-.14-3.07-.42Z"/><path d="M208.15,127.76c-1.08-1.02-1.62-2.63-1.62-4.86,0-1.6,.31-2.93,.93-3.99,.62-1.05,1.42-1.82,2.39-2.31,.98-.48,2.02-.72,3.12-.72,1.28,0,2.61,.37,4,1.1l-.93,1.91c-.68-.33-1.26-.56-1.75-.7s-1-.2-1.52-.2c-1.14,0-2.03,.43-2.67,1.29-.64,.86-.96,2.06-.96,3.61s.32,2.59,.97,3.25c.65,.66,1.52,.99,2.62,.99,.66,0,1.25-.1,1.78-.3s1.12-.49,1.75-.86l.99,1.77c-.72,.46-1.46,.84-2.22,1.12-.76,.28-1.61,.42-2.54,.42-1.82,0-3.27-.51-4.35-1.52Z"/><path d="M228.23,116.9c.74,.68,1.12,1.74,1.12,3.19v8.85h-2.26l-.15-1.1c-1.33,.97-2.87,1.45-4.61,1.45-.73,0-1.39-.14-1.97-.42-.58-.28-1.03-.68-1.35-1.19-.32-.51-.48-1.1-.48-1.75,0-1.06,.38-1.95,1.13-2.65,.75-.71,1.76-1.22,3.02-1.55,1.26-.33,2.65-.51,4.18-.55v-.64c0-.87-.17-1.5-.52-1.9-.35-.4-.94-.59-1.77-.59-1.41,0-2.88,.5-4.41,1.51l-1.1-1.74c1.86-1.28,3.8-1.91,5.83-1.91,1.49,0,2.6,.34,3.35,1.01Zm-6.58,9.89c.3,.25,.75,.38,1.35,.38,1.31,0,2.6-.39,3.86-1.16v-3.02c-1.68,.08-3.04,.34-4.09,.78-1.04,.45-1.57,1.07-1.57,1.89,0,.5,.15,.88,.45,1.13Z"/><path d="M244.29,119.92v9.02h-2.49v-8.09c0-.72-.07-1.27-.22-1.67-.15-.4-.39-.68-.73-.86-.34-.17-.8-.26-1.38-.26s-1.2,.08-1.86,.25c-.66,.16-1.28,.38-1.86,.65v9.98h-2.49v-12.7l2.49-.29v1.22c1.62-.85,3.17-1.28,4.64-1.28,2.59,0,3.89,1.34,3.89,4.03Z"/><path d="M256.58,111.07c.37-.72,.89-1.27,1.58-1.65,.69-.39,1.49-.58,2.42-.58,1.02,0,1.97,.24,2.84,.73l-.93,1.8c-.52-.29-1.12-.43-1.8-.43-1.45,0-2.17,.87-2.17,2.61v2.7h3.36l-.26,1.97h-3.1v10.73h-2.49v-10.73h-2.32v-1.97h2.32v-2.64c0-.97,.18-1.81,.55-2.52Zm8.09-2.09l2.49-.29v20.24h-2.49v-19.95Z"/><path d="M281.93,116.23v.17l-4.84,13.43c-.43,1.18-.88,2.12-1.36,2.83-.48,.71-1.03,1.22-1.64,1.54-.61,.32-1.33,.48-2.16,.48s-1.69-.15-2.52-.44l.67-1.91c.56,.17,1.11,.26,1.65,.26,.44,0,.82-.07,1.13-.2,.31-.14,.61-.4,.91-.78s.59-.97,.88-1.74l.35-.93h-.67l-4.87-12.53v-.17h2.64l2.99,8.12,.32,.87,.46,1.36,.73-2.23,2.78-8.12h2.55Z"/><path d="M301.85,120.5c.66,.83,.99,1.86,.99,3.07,0,1.12-.27,2.11-.8,2.96-.53,.85-1.32,1.52-2.38,2.02-1.05,.49-2.34,.74-3.87,.74-.99,0-1.94-.11-2.86-.33-.92-.22-1.68-.5-2.28-.83l.9-2c.56,.27,1.21,.49,1.96,.65,.74,.16,1.49,.25,2.25,.25,1.37,0,2.43-.29,3.18-.86,.74-.57,1.12-1.38,1.12-2.42,0-.77-.15-1.43-.43-1.96-.29-.53-.79-.94-1.49-1.22-.71-.28-1.68-.42-2.91-.42h-1.28l.17-2.06h2.17c.89-.33,1.59-.66,2.09-1,.5-.34,.86-.72,1.09-1.15,.22-.42,.33-.95,.33-1.57,0-.44-.13-.85-.38-1.22-.25-.37-.63-.66-1.13-.88-.5-.22-1.11-.33-1.83-.33s-1.5,.17-2.31,.51-1.55,.78-2.25,1.32l-1.36-1.57c.87-.75,1.82-1.34,2.84-1.77,1.02-.43,2.08-.64,3.16-.64,1.28,0,2.36,.2,3.25,.61,.89,.41,1.56,.96,2,1.65,.44,.7,.67,1.48,.67,2.35,0,1.01-.31,1.88-.94,2.61-.63,.73-1.5,1.31-2.62,1.71,1.31,.35,2.3,.94,2.96,1.77Z"/><path d="M307.45,126.8c-1.14-1.65-1.71-4.06-1.71-7.24,0-2.38,.34-4.3,1.03-5.76,.69-1.46,1.56-2.49,2.62-3.1,1.06-.61,2.21-.91,3.45-.91,1.43,0,2.64,.38,3.64,1.15,1,.76,1.75,1.88,2.28,3.33,.52,1.46,.78,3.23,.78,5.32,0,2.42-.33,4.35-1,5.79-.67,1.44-1.52,2.45-2.57,3.03s-2.21,.87-3.51,.87c-2.2,0-3.88-.83-5.02-2.48Zm7.54-.51c.62-.52,1.08-1.33,1.38-2.44,.3-1.1,.45-2.53,.45-4.29,0-2.53-.35-4.43-1.04-5.68-.7-1.26-1.71-1.89-3.04-1.89-1.41,0-2.48,.62-3.19,1.86-.72,1.24-1.07,3.14-1.07,5.71s.35,4.47,1.04,5.68c.7,1.22,1.73,1.83,3.1,1.83,.97,0,1.76-.26,2.38-.78Z"/><path d="M346.92,116.81c.66,.62,.99,1.62,.99,3.02v9.11h-2.49v-8.09c0-.72-.07-1.27-.2-1.67-.14-.4-.35-.68-.64-.86-.29-.17-.7-.26-1.22-.26-.56,0-1.15,.08-1.77,.25-.62,.16-1.2,.38-1.74,.65,.04,.39,.06,.68,.06,.87v9.11h-2.49v-8.09c0-.72-.06-1.27-.19-1.67-.13-.4-.33-.68-.62-.86-.29-.17-.7-.26-1.22-.26s-1.11,.08-1.71,.25c-.6,.16-1.17,.37-1.71,.62v10h-2.49v-12.7l2.49-.29v1.22c1.49-.85,2.94-1.28,4.35-1.28s2.44,.47,3.02,1.42c.7-.41,1.48-.74,2.36-1.02,.88-.27,1.74-.41,2.6-.41,1.1,0,1.98,.31,2.64,.93Z"/><path d="M352.16,113.41c-.27-.16-.49-.38-.65-.65-.16-.27-.25-.56-.25-.87,0-.33,.08-.63,.25-.9,.16-.27,.38-.49,.65-.65,.27-.16,.56-.25,.87-.25,.33,0,.63,.08,.9,.25,.27,.16,.49,.38,.65,.65,.16,.27,.25,.57,.25,.9,0,.31-.08,.6-.25,.87-.16,.27-.38,.49-.65,.65-.27,.16-.57,.25-.9,.25-.31,0-.6-.08-.87-.25Zm-.35,15.53v-12.7l2.49-.29v12.99h-2.49Z"/><path d="M358.37,128.94v-19.95l2.49-.29v20.24h-2.49Z"/><path d="M375.28,123.02h-8.84c.02,1.45,.37,2.5,1.06,3.16,.69,.66,1.57,.99,2.65,.99,.77,0,1.44-.1,2.02-.29,.57-.19,1.2-.49,1.9-.9l.96,1.77c-1.59,1.02-3.25,1.54-4.99,1.54-1.86,0-3.34-.52-4.45-1.55-1.11-1.03-1.67-2.67-1.67-4.92,0-1.28,.23-2.44,.7-3.48s1.16-1.88,2.07-2.51c.92-.63,2.04-.94,3.38-.94,1.12,0,2.08,.23,2.87,.68,.79,.45,1.39,1.08,1.8,1.87,.41,.79,.61,1.7,.61,2.73l-.06,1.86Zm-7.58-4.29c-.57,.6-.94,1.42-1.12,2.46h6.32v-.12c0-1.08-.25-1.89-.74-2.44-.49-.54-1.19-.81-2.1-.81-1.01,0-1.79,.3-2.36,.9Z"/><path d="M379.45,128.86c-.91-.28-1.75-.71-2.52-1.29l1.1-1.77c1.41,1.01,2.88,1.51,4.41,1.51,.87,0,1.54-.15,2-.45,.46-.3,.7-.74,.7-1.32,0-.46-.21-.86-.62-1.2-.42-.34-1.15-.64-2.19-.91l-.9-.23c-1.35-.35-2.34-.81-2.97-1.38-.63-.57-.94-1.33-.94-2.28,0-.71,.2-1.35,.61-1.9,.41-.55,.97-.98,1.7-1.29,.73-.31,1.54-.46,2.45-.46s1.71,.1,2.51,.3,1.62,.55,2.45,1.03l-1.02,1.77c-.79-.43-1.48-.72-2.06-.88-.58-.16-1.2-.25-1.86-.25-.7,0-1.24,.14-1.64,.42-.4,.28-.59,.65-.59,1.12,0,.41,.16,.72,.48,.94,.32,.22,.87,.44,1.67,.65l.9,.23c1.1,.29,1.99,.62,2.65,.99,.67,.37,1.15,.81,1.46,1.32,.31,.51,.46,1.13,.46,1.84,0,.77-.2,1.46-.59,2.04-.4,.59-.98,1.05-1.75,1.38-.77,.33-1.71,.49-2.81,.49s-2.17-.14-3.07-.42Z"/><path d="M389.63,132.44c.91-1.26,1.36-2.2,1.36-2.84,0-.17-.04-.31-.13-.42-.09-.11-.22-.23-.39-.36-.25-.19-.44-.38-.57-.57-.13-.18-.19-.47-.19-.86,0-.5,.18-.93,.54-1.29,.36-.36,.8-.54,1.32-.54s.94,.19,1.3,.57,.55,.92,.55,1.64c0,1.64-.79,3.46-2.38,5.45l-1.42-.78Z"/><path d="M413.21,116.81c.7,.62,1.04,1.62,1.04,3.02v9.11h-2.49v-8.09c0-.72-.07-1.27-.22-1.67-.14-.4-.39-.68-.72-.86-.34-.17-.8-.26-1.38-.26s-1.19,.08-1.84,.23c-.65,.16-1.25,.37-1.81,.64v10h-2.49v-19.95l2.49-.29v8.44c1.58-.83,3.11-1.25,4.58-1.25,1.2,0,2.15,.31,2.84,.93Z"/><path d="M426.71,116.9c.74,.68,1.12,1.74,1.12,3.19v8.85h-2.26l-.15-1.1c-1.33,.97-2.87,1.45-4.61,1.45-.73,0-1.39-.14-1.97-.42-.58-.28-1.03-.68-1.35-1.19-.32-.51-.48-1.1-.48-1.75,0-1.06,.38-1.95,1.13-2.65,.75-.71,1.76-1.22,3.02-1.55,1.26-.33,2.65-.51,4.18-.55v-.64c0-.87-.17-1.5-.52-1.9-.35-.4-.94-.59-1.77-.59-1.41,0-2.88,.5-4.41,1.51l-1.1-1.74c1.86-1.28,3.8-1.91,5.83-1.91,1.49,0,2.6,.34,3.35,1.01Zm-6.58,9.89c.3,.25,.75,.38,1.35,.38,1.31,0,2.6-.39,3.86-1.16v-3.02c-1.68,.08-3.04,.34-4.09,.78-1.04,.45-1.57,1.07-1.57,1.89,0,.5,.15,.88,.45,1.13Z"/><path d="M442.24,116.23v.17l-5.07,12.53h-2.29l-5.19-12.53v-.17h2.73l3.07,8.18c.08,.19,.23,.64,.46,1.33l.17,.55c.19-.66,.4-1.29,.61-1.88l2.9-8.18h2.61Z"/><path d="M454.44,123.02h-8.84c.02,1.45,.37,2.5,1.06,3.16,.69,.66,1.57,.99,2.65,.99,.77,0,1.44-.1,2.02-.29,.57-.19,1.2-.49,1.9-.9l.96,1.77c-1.59,1.02-3.25,1.54-4.99,1.54-1.86,0-3.34-.52-4.45-1.55-1.11-1.03-1.67-2.67-1.67-4.92,0-1.28,.23-2.44,.7-3.48s1.16-1.88,2.07-2.51c.92-.63,2.04-.94,3.38-.94,1.12,0,2.08,.23,2.87,.68,.79,.45,1.39,1.08,1.8,1.87,.41,.79,.61,1.7,.61,2.73l-.06,1.86Zm-7.58-4.29c-.57,.6-.94,1.42-1.12,2.46h6.32v-.12c0-1.08-.25-1.89-.74-2.44-.49-.54-1.19-.81-2.1-.81-1.01,0-1.79,.3-2.36,.9Z"/><path d="M473.05,116.9c.74,.68,1.12,1.74,1.12,3.19v8.85h-2.26l-.15-1.1c-1.33,.97-2.87,1.45-4.61,1.45-.73,0-1.39-.14-1.97-.42-.58-.28-1.03-.68-1.35-1.19-.32-.51-.48-1.1-.48-1.75,0-1.06,.38-1.95,1.13-2.65,.75-.71,1.76-1.22,3.02-1.55,1.26-.33,2.65-.51,4.18-.55v-.64c0-.87-.17-1.5-.52-1.9-.35-.4-.94-.59-1.77-.59-1.41,0-2.88,.5-4.41,1.51l-1.1-1.74c1.86-1.28,3.8-1.91,5.83-1.91,1.49,0,2.6,.34,3.35,1.01Zm-6.58,9.89c.3,.25,.75,.38,1.35,.38,1.31,0,2.6-.39,3.86-1.16v-3.02c-1.68,.08-3.04,.34-4.09,.78-1.04,.45-1.57,1.07-1.57,1.89,0,.5,.15,.88,.45,1.13Z"/><path d="M502.5,116.81c.66,.62,.99,1.62,.99,3.02v9.11h-2.49v-8.09c0-.72-.07-1.27-.2-1.67-.14-.4-.35-.68-.64-.86-.29-.17-.7-.26-1.22-.26-.56,0-1.15,.08-1.77,.25-.62,.16-1.2,.38-1.74,.65,.04,.39,.06,.68,.06,.87v9.11h-2.49v-8.09c0-.72-.06-1.27-.19-1.67-.13-.4-.33-.68-.62-.86-.29-.17-.7-.26-1.22-.26s-1.11,.08-1.71,.25c-.6,.16-1.17,.37-1.71,.62v10h-2.49v-12.7l2.49-.29v1.22c1.49-.85,2.94-1.28,4.35-1.28s2.44,.47,3.02,1.42c.7-.41,1.48-.74,2.36-1.02,.88-.27,1.74-.41,2.6-.41,1.1,0,1.98,.31,2.64,.93Z"/><path d="M515.94,116.9c.74,.68,1.12,1.74,1.12,3.19v8.85h-2.26l-.15-1.1c-1.33,.97-2.87,1.45-4.61,1.45-.73,0-1.39-.14-1.97-.42-.58-.28-1.03-.68-1.35-1.19-.32-.51-.48-1.1-.48-1.75,0-1.06,.38-1.95,1.13-2.65,.75-.71,1.76-1.22,3.02-1.55,1.26-.33,2.65-.51,4.18-.55v-.64c0-.87-.17-1.5-.52-1.9-.35-.4-.94-.59-1.77-.59-1.41,0-2.88,.5-4.41,1.51l-1.1-1.74c1.86-1.28,3.8-1.91,5.83-1.91,1.49,0,2.6,.34,3.35,1.01Zm-6.58,9.89c.3,.25,.75,.38,1.35,.38,1.31,0,2.6-.39,3.86-1.16v-3.02c-1.68,.08-3.04,.34-4.09,.78-1.04,.45-1.57,1.07-1.57,1.89,0,.5,.15,.88,.45,1.13Z"/><path d="M526.65,122.38l4.52,6.38v.17h-2.87l-3.22-4.9-3.45,4.9h-2.61v-.17l4.55-6.35-4.35-6v-.17h2.84l3.1,4.52,3.13-4.52h2.58v.17l-4.23,5.97Z"/><path d="M533.93,113.41c-.27-.16-.49-.38-.65-.65-.16-.27-.25-.56-.25-.87,0-.33,.08-.63,.25-.9,.16-.27,.38-.49,.65-.65,.27-.16,.56-.25,.87-.25,.33,0,.63,.08,.9,.25,.27,.16,.49,.38,.65,.65,.16,.27,.25,.57,.25,.9,0,.31-.08,.6-.25,.87-.16,.27-.38,.49-.65,.65-.27,.16-.57,.25-.9,.25-.31,0-.6-.08-.87-.25Zm-.35,15.53v-12.7l2.49-.29v12.99h-2.49Z"/><path d="M557.6,116.81c.66,.62,.99,1.62,.99,3.02v9.11h-2.49v-8.09c0-.72-.07-1.27-.2-1.67-.14-.4-.35-.68-.64-.86-.29-.17-.7-.26-1.22-.26-.56,0-1.15,.08-1.77,.25-.62,.16-1.2,.38-1.74,.65,.04,.39,.06,.68,.06,.87v9.11h-2.49v-8.09c0-.72-.06-1.27-.19-1.67-.13-.4-.33-.68-.62-.86-.29-.17-.7-.26-1.22-.26s-1.11,.08-1.71,.25c-.6,.16-1.17,.37-1.71,.62v10h-2.49v-12.7l2.49-.29v1.22c1.49-.85,2.94-1.28,4.35-1.28s2.44,.47,3.02,1.42c.7-.41,1.48-.74,2.36-1.02,.88-.27,1.74-.41,2.6-.41,1.1,0,1.98,.31,2.64,.93Z"/><path d="M573.26,115.94v12.99h-2.23l-.15-.96c-1.49,.87-3,1.31-4.52,1.31-1.18,0-2.14-.33-2.89-1-.74-.67-1.12-1.68-1.12-3.03v-9.02l2.49-.29v8.58c0,.64,.08,1.15,.23,1.52,.15,.38,.41,.65,.75,.81,.35,.16,.83,.25,1.45,.25,.93,0,2.09-.36,3.48-1.07v-9.8l2.49-.29Z"/><path d="M594.77,116.81c.66,.62,.99,1.62,.99,3.02v9.11h-2.49v-8.09c0-.72-.07-1.27-.2-1.67-.14-.4-.35-.68-.64-.86-.29-.17-.7-.26-1.22-.26-.56,0-1.15,.08-1.77,.25-.62,.16-1.2,.38-1.74,.65,.04,.39,.06,.68,.06,.87v9.11h-2.49v-8.09c0-.72-.06-1.27-.19-1.67-.13-.4-.33-.68-.62-.86-.29-.17-.7-.26-1.22-.26s-1.11,.08-1.71,.25c-.6,.16-1.17,.37-1.71,.62v10h-2.49v-12.7l2.49-.29v1.22c1.49-.85,2.94-1.28,4.35-1.28s2.44,.47,3.02,1.42c.7-.41,1.48-.74,2.36-1.02,.88-.27,1.74-.41,2.6-.41,1.1,0,1.98,.31,2.64,.93Z"/><path d="M607.71,128.86c-.91-.28-1.75-.71-2.52-1.29l1.1-1.77c1.41,1.01,2.88,1.51,4.41,1.51,.87,0,1.54-.15,2-.45,.46-.3,.7-.74,.7-1.32,0-.46-.21-.86-.62-1.2-.42-.34-1.15-.64-2.19-.91l-.9-.23c-1.35-.35-2.34-.81-2.97-1.38-.63-.57-.94-1.33-.94-2.28,0-.71,.2-1.35,.61-1.9,.41-.55,.97-.98,1.7-1.29,.73-.31,1.54-.46,2.45-.46s1.71,.1,2.51,.3,1.62,.55,2.45,1.03l-1.02,1.77c-.79-.43-1.48-.72-2.06-.88-.58-.16-1.2-.25-1.86-.25-.7,0-1.24,.14-1.64,.42-.4,.28-.59,.65-.59,1.12,0,.41,.16,.72,.48,.94,.32,.22,.87,.44,1.67,.65l.9,.23c1.1,.29,1.99,.62,2.65,.99,.67,.37,1.15,.81,1.46,1.32,.31,.51,.46,1.13,.46,1.84,0,.77-.2,1.46-.59,2.04-.4,.59-.98,1.05-1.75,1.38-.77,.33-1.71,.49-2.81,.49s-2.17-.14-3.07-.42Z"/><path d="M628.32,116.75c.79,.58,1.38,1.35,1.75,2.32s.57,2.02,.57,3.16c0,1.47-.29,2.74-.86,3.8-.57,1.06-1.35,1.87-2.33,2.42s-2.11,.83-3.36,.83c-.95,0-1.87-.13-2.75-.38v5.42h-2.49v-18.1l2.49-.29v1.13c.7-.39,1.39-.68,2.07-.88,.69-.2,1.33-.3,1.93-.3,1.2,0,2.19,.29,2.99,.87Zm-2.33,10.02c.61-.36,1.09-.91,1.45-1.67,.36-.75,.54-1.69,.54-2.81,0-1.45-.29-2.52-.87-3.22-.58-.7-1.4-1.04-2.46-1.04-1.12,0-2.22,.32-3.31,.96v7.89c.91,.29,1.76,.44,2.55,.44s1.49-.18,2.1-.54Z"/><path d="M644.04,123.02h-8.84c.02,1.45,.37,2.5,1.06,3.16,.69,.66,1.57,.99,2.65,.99,.77,0,1.44-.1,2.02-.29,.57-.19,1.2-.49,1.9-.9l.96,1.77c-1.59,1.02-3.25,1.54-4.99,1.54-1.86,0-3.34-.52-4.45-1.55-1.11-1.03-1.67-2.67-1.67-4.92,0-1.28,.23-2.44,.7-3.48s1.16-1.88,2.07-2.51c.92-.63,2.04-.94,3.38-.94,1.12,0,2.08,.23,2.87,.68,.79,.45,1.39,1.08,1.8,1.87,.41,.79,.61,1.7,.61,2.73l-.06,1.86Zm-7.58-4.29c-.57,.6-.94,1.42-1.12,2.46h6.32v-.12c0-1.08-.25-1.89-.74-2.44-.49-.54-1.19-.81-2.1-.81-1.01,0-1.79,.3-2.36,.9Z"/><path d="M657.5,123.02h-8.84c.02,1.45,.37,2.5,1.06,3.16,.69,.66,1.57,.99,2.65,.99,.77,0,1.44-.1,2.02-.29,.57-.19,1.2-.49,1.9-.9l.96,1.77c-1.59,1.02-3.25,1.54-4.99,1.54-1.86,0-3.34-.52-4.45-1.55-1.11-1.03-1.67-2.67-1.67-4.92,0-1.28,.23-2.44,.7-3.48s1.16-1.88,2.07-2.51c.92-.63,2.04-.94,3.38-.94,1.12,0,2.08,.23,2.87,.68,.79,.45,1.39,1.08,1.8,1.87,.41,.79,.61,1.7,.61,2.73l-.06,1.86Zm-7.58-4.29c-.57,.6-.94,1.42-1.12,2.46h6.32v-.12c0-1.08-.25-1.89-.74-2.44-.49-.54-1.19-.81-2.1-.81-1.01,0-1.79,.3-2.36,.9Z"/><path d="M671.39,108.69v20.24h-2.26l-.12-.93c-.7,.41-1.4,.72-2.12,.94-.72,.22-1.38,.33-2,.33-1.12,0-2.08-.26-2.87-.77-.79-.51-1.4-1.25-1.81-2.2-.42-.96-.62-2.08-.62-3.38,0-1.47,.28-2.74,.86-3.8,.57-1.06,1.35-1.87,2.33-2.42,.99-.55,2.11-.83,3.36-.83,.83,0,1.75,.13,2.76,.38v-7.28l2.49-.29Zm-8.26,17.4c.58,.7,1.4,1.04,2.46,1.04,1.12,0,2.22-.32,3.31-.96v-7.89c-.87-.29-1.72-.44-2.55-.44s-1.49,.18-2.1,.54c-.61,.36-1.09,.91-1.45,1.67-.36,.75-.54,1.69-.54,2.81,0,1.45,.29,2.52,.87,3.22Z"/><path d="M684.09,128.4c-.91-.59-1.59-1.39-2.03-2.41-.45-1.02-.67-2.16-.67-3.44,0-1.55,.29-2.82,.87-3.81,.58-1,1.36-1.72,2.35-2.18,.99-.45,2.11-.68,3.36-.68,1.35,0,2.48,.29,3.39,.88,.91,.59,1.58,1.39,2.03,2.39,.44,1.01,.67,2.15,.67,3.42,0,1.57-.29,2.85-.87,3.84s-1.36,1.72-2.35,2.17c-.99,.45-2.11,.68-3.36,.68-1.35,0-2.48-.29-3.39-.88Zm7.37-5.84c0-1.41-.3-2.54-.91-3.38-.61-.84-1.52-1.26-2.74-1.26-1.35,0-2.32,.41-2.91,1.23-.59,.82-.88,1.96-.88,3.41s.31,2.57,.93,3.42c.62,.85,1.55,1.28,2.78,1.28,2.49,0,3.74-1.57,3.74-4.7Z"/><path d="M701.01,111.61c-.36,.47-.54,1.15-.54,2.02v2.61h3.94l-.26,1.97h-3.68v10.73h-2.49v-10.73h-2.32v-1.97h2.32v-2.55c0-.97,.18-1.82,.55-2.55,.37-.73,.89-1.3,1.58-1.71,.69-.41,1.49-.61,2.42-.61,1.06,0,2.04,.16,2.93,.49l-.64,1.97c-.72-.25-1.44-.38-2.18-.38s-1.28,.24-1.64,.71Z"/><path d="M715.12,128.4c-.91-.59-1.59-1.39-2.03-2.41-.45-1.02-.67-2.16-.67-3.44,0-1.55,.29-2.82,.87-3.81,.58-1,1.36-1.72,2.35-2.18,.99-.45,2.11-.68,3.36-.68,1.35,0,2.48,.29,3.39,.88,.91,.59,1.58,1.39,2.03,2.39,.44,1.01,.67,2.15,.67,3.42,0,1.57-.29,2.85-.87,3.84s-1.36,1.72-2.35,2.17c-.99,.45-2.11,.68-3.36,.68-1.35,0-2.48-.29-3.39-.88Zm7.37-5.84c0-1.41-.3-2.54-.91-3.38-.61-.84-1.52-1.26-2.74-1.26-1.35,0-2.32,.41-2.91,1.23-.59,.82-.88,1.96-.88,3.41s.31,2.57,.93,3.42c.62,.85,1.55,1.28,2.78,1.28,2.49,0,3.74-1.57,3.74-4.7Z"/><path d="M738.49,116.23v.17l-5.07,12.53h-2.29l-5.19-12.53v-.17h2.73l3.07,8.18c.08,.19,.23,.64,.46,1.33l.17,.55c.19-.66,.4-1.29,.61-1.88l2.9-8.18h2.61Z"/><path d="M750.7,123.02h-8.84c.02,1.45,.37,2.5,1.06,3.16,.69,.66,1.57,.99,2.65,.99,.77,0,1.44-.1,2.02-.29,.57-.19,1.2-.49,1.9-.9l.96,1.77c-1.59,1.02-3.25,1.54-4.99,1.54-1.86,0-3.34-.52-4.45-1.55-1.11-1.03-1.67-2.67-1.67-4.92,0-1.28,.23-2.44,.7-3.48s1.16-1.88,2.07-2.51c.92-.63,2.04-.94,3.38-.94,1.12,0,2.08,.23,2.87,.68,.79,.45,1.39,1.08,1.8,1.87,.41,.79,.61,1.7,.61,2.73l-.06,1.86Zm-7.58-4.29c-.57,.6-.94,1.42-1.12,2.46h6.32v-.12c0-1.08-.25-1.89-.74-2.44-.49-.54-1.19-.81-2.1-.81-1.01,0-1.79,.3-2.36,.9Z"/><path d="M760.91,115.94c.27,.04,.56,.1,.87,.17l-.46,2.58c-.66-.23-1.26-.35-1.8-.35-.62,0-1.19,.14-1.71,.41-.52,.27-1.03,.78-1.51,1.54v8.64h-2.49v-12.73l2.49-.26v1.83c.48-.62,1.04-1.09,1.68-1.41,.64-.32,1.31-.48,2.03-.48,.33,0,.63,.02,.9,.06Z"/><path d="M782.86,126.67v2.26h-12.27v-1.28l1.04-1.04c2.3-2.32,3.97-4.05,5.02-5.19,1.04-1.14,1.86-2.19,2.45-3.16,.59-.97,.88-1.88,.88-2.73,0-1.08-.28-1.91-.84-2.48-.56-.57-1.35-.86-2.38-.86-.83,0-1.66,.18-2.49,.55-.83,.37-1.6,.84-2.29,1.42l-1.42-1.68c.85-.83,1.84-1.49,2.97-1.97,1.13-.48,2.32-.73,3.55-.73,1.06,0,2.02,.21,2.89,.64,.86,.43,1.54,1.04,2.03,1.84,.49,.8,.74,1.74,.74,2.8,0,1.14-.27,2.26-.81,3.35-.54,1.09-1.34,2.25-2.41,3.47-1.06,1.22-2.59,2.81-4.58,4.78h7.92Z"/><path d="M799.62,122.35v2.26h-2.61v4.32h-2.76v-4.32h-8.58v-1.13l5.45-13.34h3.07l-5.28,12.21h5.34l.46-5.92h2.29v5.92h2.61Z"/><path d="M813.35,120.35c.63,.44,1.12,.97,1.46,1.57,.35,.6,.52,1.31,.52,2.12,0,1.08-.27,2.02-.8,2.81-.53,.79-1.31,1.4-2.35,1.81-1.03,.42-2.29,.62-3.76,.62s-2.71-.21-3.77-.64c-1.06-.42-1.87-1.02-2.42-1.8-.55-.77-.83-1.68-.83-2.73,0-1.1,.35-2.06,1.04-2.89,.7-.82,1.8-1.58,3.31-2.28-1.02-.54-1.84-1.17-2.45-1.88-.61-.72-.91-1.58-.91-2.61,0-.97,.26-1.8,.78-2.51,.52-.71,1.25-1.24,2.18-1.61,.93-.37,1.97-.55,3.13-.55,1.28,0,2.36,.21,3.25,.62,.89,.42,1.56,.97,2,1.67,.44,.7,.67,1.45,.67,2.26,0,.93-.31,1.78-.94,2.57-.63,.78-1.48,1.46-2.57,2.04,1,.48,1.82,.95,2.45,1.39Zm-2.6,6.38c.62-.27,1.07-.63,1.36-1.09,.29-.45,.44-.94,.44-1.46,0-.72-.21-1.33-.64-1.84-.43-.51-.95-.93-1.58-1.26-.63-.33-1.51-.73-2.65-1.22-1.3,.52-2.2,1.11-2.71,1.75-.51,.65-.77,1.35-.77,2.1,0,.66,.16,1.24,.48,1.75s.8,.92,1.45,1.22c.65,.3,1.43,.45,2.33,.45s1.67-.14,2.29-.41Zm-4.77-14.08c-.57,.47-.86,1.1-.86,1.87,0,.5,.14,.95,.42,1.35,.28,.4,.7,.77,1.25,1.12,.55,.35,1.28,.73,2.19,1.13,.89-.41,1.56-.91,2.02-1.51,.45-.6,.68-1.23,.68-1.88,0-.87-.28-1.55-.84-2.04-.56-.49-1.36-.74-2.41-.74s-1.88,.24-2.45,.71Z"/><path d="M842.6,116.81c.66,.62,.99,1.62,.99,3.02v9.11h-2.49v-8.09c0-.72-.07-1.27-.2-1.67-.14-.4-.35-.68-.64-.86-.29-.17-.7-.26-1.22-.26-.56,0-1.15,.08-1.77,.25-.62,.16-1.2,.38-1.74,.65,.04,.39,.06,.68,.06,.87v9.11h-2.49v-8.09c0-.72-.06-1.27-.19-1.67-.13-.4-.33-.68-.62-.86-.29-.17-.7-.26-1.22-.26s-1.11,.08-1.71,.25c-.6,.16-1.17,.37-1.71,.62v10h-2.49v-12.7l2.49-.29v1.22c1.49-.85,2.94-1.28,4.35-1.28s2.44,.47,3.02,1.42c.7-.41,1.48-.74,2.36-1.02,.88-.27,1.74-.41,2.6-.41,1.1,0,1.98,.31,2.64,.93Z"/><path d="M856.98,116.75c.79,.58,1.38,1.35,1.75,2.32s.57,2.02,.57,3.16c0,1.47-.29,2.74-.86,3.8-.57,1.06-1.35,1.87-2.33,2.42s-2.11,.83-3.36,.83c-.95,0-1.87-.13-2.75-.38v5.42h-2.49v-18.1l2.49-.29v1.13c.7-.39,1.39-.68,2.07-.88,.69-.2,1.33-.3,1.93-.3,1.2,0,2.19,.29,2.99,.87Zm-2.33,10.02c.61-.36,1.09-.91,1.45-1.67,.36-.75,.54-1.69,.54-2.81,0-1.45-.29-2.52-.87-3.22-.58-.7-1.4-1.04-2.46-1.04-1.12,0-2.22,.32-3.31,.96v7.89c.91,.29,1.76,.44,2.55,.44s1.49-.18,2.1-.54Z"/><path d="M872.27,116.81c.7,.62,1.04,1.62,1.04,3.02v9.11h-2.49v-8.09c0-.72-.07-1.27-.22-1.67-.14-.4-.39-.68-.72-.86-.34-.17-.8-.26-1.38-.26s-1.19,.08-1.84,.23c-.65,.16-1.25,.37-1.81,.64v10h-2.49v-19.95l2.49-.29v8.44c1.58-.83,3.11-1.25,4.58-1.25,1.2,0,2.15,.31,2.84,.93Z"/><path d="M10.71,151.7c.74,.68,1.12,1.74,1.12,3.19v8.85h-2.26l-.15-1.1c-1.33,.97-2.87,1.45-4.61,1.45-.73,0-1.39-.14-1.97-.42-.58-.28-1.03-.68-1.35-1.19-.32-.51-.48-1.1-.48-1.75,0-1.06,.38-1.95,1.13-2.65,.75-.71,1.76-1.22,3.02-1.55,1.26-.33,2.65-.51,4.18-.55v-.64c0-.87-.17-1.5-.52-1.9-.35-.4-.94-.59-1.77-.59-1.41,0-2.88,.5-4.41,1.51l-1.1-1.74c1.86-1.28,3.8-1.91,5.83-1.91,1.49,0,2.6,.34,3.35,1.01Zm-6.58,9.89c.3,.25,.75,.38,1.35,.38,1.31,0,2.6-.39,3.86-1.16v-3.02c-1.68,.08-3.04,.34-4.09,.78-1.04,.45-1.57,1.07-1.57,1.89,0,.5,.15,.88,.45,1.13Z"/><path d="M26.76,154.72v9.02h-2.49v-8.09c0-.72-.07-1.27-.22-1.67-.15-.4-.39-.68-.73-.86-.34-.17-.8-.26-1.38-.26s-1.2,.08-1.86,.25c-.66,.16-1.28,.38-1.86,.65v9.98h-2.49v-12.7l2.49-.29v1.22c1.62-.85,3.17-1.28,4.64-1.28,2.59,0,3.89,1.34,3.89,4.03Z"/><path d="M41.46,143.49v20.24h-2.26l-.12-.93c-.7,.41-1.4,.72-2.12,.94-.72,.22-1.38,.33-2,.33-1.12,0-2.08-.26-2.87-.77-.79-.51-1.4-1.25-1.81-2.2-.42-.96-.62-2.08-.62-3.38,0-1.47,.28-2.74,.86-3.8,.57-1.06,1.35-1.87,2.33-2.42,.99-.55,2.11-.83,3.36-.83,.83,0,1.75,.13,2.76,.38v-7.28l2.49-.29Zm-8.26,17.4c.58,.7,1.4,1.04,2.46,1.04,1.12,0,2.22-.32,3.31-.96v-7.89c-.87-.29-1.72-.44-2.55-.44s-1.49,.18-2.1,.54c-.61,.36-1.09,.91-1.45,1.67-.36,.75-.54,1.69-.54,2.81,0,1.45,.29,2.52,.87,3.22Z"/><path d="M53.09,162.56c-1.08-1.02-1.62-2.63-1.62-4.86,0-1.6,.31-2.93,.93-3.99,.62-1.05,1.42-1.82,2.39-2.31,.98-.48,2.02-.72,3.12-.72,1.28,0,2.61,.37,4,1.1l-.93,1.91c-.68-.33-1.26-.56-1.75-.7s-1-.2-1.52-.2c-1.14,0-2.03,.43-2.67,1.29-.64,.86-.96,2.06-.96,3.61s.32,2.59,.97,3.25c.65,.66,1.52,.99,2.62,.99,.66,0,1.25-.1,1.78-.3s1.12-.49,1.75-.86l.99,1.77c-.72,.46-1.46,.84-2.22,1.12-.76,.28-1.61,.42-2.54,.42-1.82,0-3.27-.51-4.35-1.52Z"/><path d="M73.18,151.7c.74,.68,1.12,1.74,1.12,3.19v8.85h-2.26l-.15-1.1c-1.33,.97-2.87,1.45-4.61,1.45-.73,0-1.39-.14-1.97-.42-.58-.28-1.03-.68-1.35-1.19-.32-.51-.48-1.1-.48-1.75,0-1.06,.38-1.95,1.13-2.65,.75-.71,1.76-1.22,3.02-1.55,1.26-.33,2.65-.51,4.18-.55v-.64c0-.87-.17-1.5-.52-1.9-.35-.4-.94-.59-1.77-.59-1.41,0-2.88,.5-4.41,1.51l-1.1-1.74c1.86-1.28,3.8-1.91,5.83-1.91,1.49,0,2.6,.34,3.35,1.01Zm-6.58,9.89c.3,.25,.75,.38,1.35,.38,1.31,0,2.6-.39,3.86-1.16v-3.02c-1.68,.08-3.04,.34-4.09,.78-1.04,.45-1.57,1.07-1.57,1.89,0,.5,.15,.88,.45,1.13Z"/><path d="M89.23,154.72v9.02h-2.49v-8.09c0-.72-.07-1.27-.22-1.67-.15-.4-.39-.68-.73-.86-.34-.17-.8-.26-1.38-.26s-1.2,.08-1.86,.25c-.66,.16-1.28,.38-1.86,.65v9.98h-2.49v-12.7l2.49-.29v1.22c1.62-.85,3.17-1.28,4.64-1.28,2.59,0,3.89,1.34,3.89,4.03Z"/><path d="M107.21,150.74c.27,.04,.56,.1,.87,.17l-.46,2.58c-.66-.23-1.26-.35-1.8-.35-.62,0-1.19,.14-1.71,.41-.52,.27-1.03,.78-1.51,1.54v8.64h-2.49v-12.73l2.49-.26v1.83c.48-.62,1.04-1.09,1.68-1.41,.64-.32,1.31-.48,2.03-.48,.33,0,.63,.02,.9,.06Z"/><path d="M120.31,157.82h-8.84c.02,1.45,.37,2.5,1.06,3.16,.69,.66,1.57,.99,2.65,.99,.77,0,1.44-.1,2.02-.29,.57-.19,1.2-.49,1.9-.9l.96,1.77c-1.59,1.02-3.25,1.54-4.99,1.54-1.86,0-3.34-.52-4.45-1.55-1.11-1.03-1.67-2.67-1.67-4.92,0-1.28,.23-2.44,.7-3.48s1.16-1.88,2.07-2.51c.92-.63,2.04-.94,3.38-.94,1.12,0,2.08,.23,2.87,.68,.79,.45,1.39,1.08,1.8,1.87,.41,.79,.61,1.7,.61,2.73l-.06,1.86Zm-7.58-4.29c-.57,.6-.94,1.42-1.12,2.46h6.32v-.12c0-1.08-.25-1.89-.74-2.44-.49-.54-1.19-.81-2.1-.81-1.01,0-1.79,.3-2.36,.9Z"/><path d="M131.96,151.7c.74,.68,1.12,1.74,1.12,3.19v8.85h-2.26l-.15-1.1c-1.33,.97-2.87,1.45-4.61,1.45-.73,0-1.39-.14-1.97-.42-.58-.28-1.03-.68-1.35-1.19-.32-.51-.48-1.1-.48-1.75,0-1.06,.38-1.95,1.13-2.65,.75-.71,1.76-1.22,3.02-1.55,1.26-.33,2.65-.51,4.18-.55v-.64c0-.87-.17-1.5-.52-1.9-.35-.4-.94-.59-1.77-.59-1.41,0-2.88,.5-4.41,1.51l-1.1-1.74c1.86-1.28,3.8-1.91,5.83-1.91,1.49,0,2.6,.34,3.35,1.01Zm-6.58,9.89c.3,.25,.75,.38,1.35,.38,1.31,0,2.6-.39,3.86-1.16v-3.02c-1.68,.08-3.04,.34-4.09,.78-1.04,.45-1.57,1.07-1.57,1.89,0,.5,.15,.88,.45,1.13Z"/><path d="M137.6,162.56c-1.08-1.02-1.62-2.63-1.62-4.86,0-1.6,.31-2.93,.93-3.99,.62-1.05,1.42-1.82,2.39-2.31,.98-.48,2.02-.72,3.12-.72,1.28,0,2.61,.37,4,1.1l-.93,1.91c-.68-.33-1.26-.56-1.75-.7s-1-.2-1.52-.2c-1.14,0-2.03,.43-2.67,1.29-.64,.86-.96,2.06-.96,3.61s.32,2.59,.97,3.25c.65,.66,1.52,.99,2.62,.99,.66,0,1.25-.1,1.78-.3s1.12-.49,1.75-.86l.99,1.77c-.72,.46-1.46,.84-2.22,1.12-.76,.28-1.61,.42-2.54,.42-1.82,0-3.27-.51-4.35-1.52Z"/><path d="M159.06,151.61c.7,.62,1.04,1.62,1.04,3.02v9.11h-2.49v-8.09c0-.72-.07-1.27-.22-1.67-.14-.4-.39-.68-.72-.86-.34-.17-.8-.26-1.38-.26s-1.19,.08-1.84,.23c-.65,.16-1.25,.37-1.81,.64v10h-2.49v-19.95l2.49-.29v8.44c1.58-.83,3.11-1.25,4.58-1.25,1.2,0,2.15,.31,2.84,.93Z"/><path d="M179.52,151.7c.74,.68,1.12,1.74,1.12,3.19v8.85h-2.26l-.15-1.1c-1.33,.97-2.87,1.45-4.61,1.45-.73,0-1.39-.14-1.97-.42-.58-.28-1.03-.68-1.35-1.19-.32-.51-.48-1.1-.48-1.75,0-1.06,.38-1.95,1.13-2.65,.75-.71,1.76-1.22,3.02-1.55,1.26-.33,2.65-.51,4.18-.55v-.64c0-.87-.17-1.5-.52-1.9-.35-.4-.94-.59-1.77-.59-1.41,0-2.88,.5-4.41,1.51l-1.1-1.74c1.86-1.28,3.8-1.91,5.83-1.91,1.49,0,2.6,.34,3.35,1.01Zm-6.58,9.89c.3,.25,.75,.38,1.35,.38,1.31,0,2.6-.39,3.86-1.16v-3.02c-1.68,.08-3.04,.34-4.09,.78-1.04,.45-1.57,1.07-1.57,1.89,0,.5,.15,.88,.45,1.13Z"/><path d="M195.57,154.72v9.02h-2.49v-8.09c0-.72-.07-1.27-.22-1.67-.15-.4-.39-.68-.73-.86-.34-.17-.8-.26-1.38-.26s-1.2,.08-1.86,.25c-.66,.16-1.28,.38-1.86,.65v9.98h-2.49v-12.7l2.49-.29v1.22c1.62-.85,3.17-1.28,4.64-1.28,2.59,0,3.89,1.34,3.89,4.03Z"/><path d="M214.98,151.7c.74,.68,1.12,1.74,1.12,3.19v8.85h-2.26l-.15-1.1c-1.33,.97-2.87,1.45-4.61,1.45-.73,0-1.39-.14-1.97-.42-.58-.28-1.03-.68-1.35-1.19-.32-.51-.48-1.1-.48-1.75,0-1.06,.38-1.95,1.13-2.65,.75-.71,1.76-1.22,3.02-1.55,1.26-.33,2.65-.51,4.18-.55v-.64c0-.87-.17-1.5-.52-1.9-.35-.4-.94-.59-1.77-.59-1.41,0-2.88,.5-4.41,1.51l-1.1-1.74c1.86-1.28,3.8-1.91,5.83-1.91,1.49,0,2.6,.34,3.35,1.01Zm-6.58,9.89c.3,.25,.75,.38,1.35,.38,1.31,0,2.6-.39,3.86-1.16v-3.02c-1.68,.08-3.04,.34-4.09,.78-1.04,.45-1.57,1.07-1.57,1.89,0,.5,.15,.88,.45,1.13Z"/><path d="M220.01,163.73v-19.95l2.49-.29v20.24h-2.49Z"/><path d="M234.6,163.27c-1.01,.54-2.07,.81-3.19,.81-1.2,0-2.15-.34-2.84-1.03-.7-.69-1.04-1.72-1.04-3.09v-6.96h-2.55v-1.97h2.55v-2.87l2.49-.41v3.28h4.29l-.26,1.97h-4.03v6.55c0,1.62,.6,2.44,1.8,2.44,.35,0,.69-.04,1.02-.12,.33-.08,.69-.2,1.07-.38l.7,1.77Z"/><path d="M237.41,148.21c-.27-.16-.49-.38-.65-.65-.16-.27-.25-.56-.25-.87,0-.33,.08-.63,.25-.9,.16-.27,.38-.49,.65-.65,.27-.16,.56-.25,.87-.25,.33,0,.63,.08,.9,.25,.27,.16,.49,.38,.65,.65,.16,.27,.25,.57,.25,.9,0,.31-.08,.6-.25,.87-.16,.27-.38,.49-.65,.65-.27,.16-.57,.25-.9,.25-.31,0-.6-.08-.87-.25Zm-.35,15.53v-12.7l2.49-.29v12.99h-2.49Z"/><path d="M251.65,163.27c-1.01,.54-2.07,.81-3.19,.81-1.2,0-2.15-.34-2.84-1.03-.7-.69-1.04-1.72-1.04-3.09v-6.96h-2.55v-1.97h2.55v-2.87l2.49-.41v3.28h4.29l-.26,1.97h-4.03v6.55c0,1.62,.6,2.44,1.8,2.44,.35,0,.69-.04,1.02-.12,.33-.08,.69-.2,1.07-.38l.7,1.77Z"/><path d="M264.88,150.74v12.99h-2.23l-.15-.96c-1.49,.87-3,1.31-4.52,1.31-1.18,0-2.14-.33-2.89-1-.74-.67-1.12-1.68-1.12-3.03v-9.02l2.49-.29v8.58c0,.64,.08,1.15,.23,1.52,.15,.38,.41,.65,.75,.81,.35,.16,.83,.25,1.45,.25,.93,0,2.09-.36,3.48-1.07v-9.8l2.49-.29Z"/><path d="M279.73,143.49v20.24h-2.26l-.12-.93c-.7,.41-1.4,.72-2.12,.94-.72,.22-1.38,.33-2,.33-1.12,0-2.08-.26-2.87-.77-.79-.51-1.4-1.25-1.81-2.2-.42-.96-.62-2.08-.62-3.38,0-1.47,.28-2.74,.86-3.8,.57-1.06,1.35-1.87,2.33-2.42,.99-.55,2.11-.83,3.36-.83,.83,0,1.75,.13,2.76,.38v-7.28l2.49-.29Zm-8.26,17.4c.58,.7,1.4,1.04,2.46,1.04,1.12,0,2.22-.32,3.31-.96v-7.89c-.87-.29-1.72-.44-2.55-.44s-1.49,.18-2.1,.54c-.61,.36-1.09,.91-1.45,1.67-.36,.75-.54,1.69-.54,2.81,0,1.45,.29,2.52,.87,3.22Z"/><path d="M294.14,157.82h-8.84c.02,1.45,.37,2.5,1.06,3.16,.69,.66,1.57,.99,2.65,.99,.77,0,1.44-.1,2.02-.29,.57-.19,1.2-.49,1.9-.9l.96,1.77c-1.59,1.02-3.25,1.54-4.99,1.54-1.86,0-3.34-.52-4.45-1.55-1.11-1.03-1.67-2.67-1.67-4.92,0-1.28,.23-2.44,.7-3.48s1.16-1.88,2.07-2.51c.92-.63,2.04-.94,3.38-.94,1.12,0,2.08,.23,2.87,.68,.79,.45,1.39,1.08,1.8,1.87,.41,.79,.61,1.7,.61,2.73l-.06,1.86Zm-7.58-4.29c-.57,.6-.94,1.42-1.12,2.46h6.32v-.12c0-1.08-.25-1.89-.74-2.44-.49-.54-1.19-.81-2.1-.81-1.01,0-1.79,.3-2.36,.9Z"/><path d="M305.88,163.2c-.91-.59-1.59-1.39-2.03-2.41-.45-1.02-.67-2.16-.67-3.44,0-1.55,.29-2.82,.87-3.81,.58-1,1.36-1.72,2.35-2.18,.99-.45,2.11-.68,3.36-.68,1.35,0,2.48,.29,3.39,.88,.91,.59,1.58,1.39,2.03,2.39,.44,1.01,.67,2.15,.67,3.42,0,1.57-.29,2.85-.87,3.84s-1.36,1.72-2.35,2.17c-.99,.45-2.11,.68-3.36,.68-1.35,0-2.48-.29-3.39-.88Zm7.37-5.84c0-1.41-.3-2.54-.91-3.38-.61-.84-1.52-1.26-2.74-1.26-1.35,0-2.32,.41-2.91,1.23-.59,.82-.88,1.96-.88,3.41s.31,2.57,.93,3.42c.62,.85,1.55,1.28,2.78,1.28,2.49,0,3.74-1.57,3.74-4.7Z"/><path d="M322.8,146.41c-.36,.47-.54,1.15-.54,2.02v2.61h3.94l-.26,1.97h-3.68v10.73h-2.49v-10.73h-2.32v-1.97h2.32v-2.55c0-.97,.18-1.82,.55-2.55,.37-.73,.89-1.3,1.58-1.71,.69-.41,1.49-.61,2.42-.61,1.06,0,2.04,.16,2.93,.49l-.64,1.97c-.72-.25-1.44-.38-2.18-.38s-1.28,.24-1.64,.71Z"/><path d="M346.89,161.47v2.26h-12.27v-1.28l1.04-1.04c2.3-2.32,3.97-4.05,5.02-5.19,1.04-1.14,1.86-2.19,2.45-3.16,.59-.97,.88-1.88,.88-2.73,0-1.08-.28-1.91-.84-2.48-.56-.57-1.35-.86-2.38-.86-.83,0-1.66,.18-2.49,.55-.83,.37-1.6,.84-2.29,1.42l-1.42-1.68c.85-.83,1.84-1.49,2.97-1.97,1.13-.48,2.32-.73,3.55-.73,1.06,0,2.02,.21,2.89,.64,.86,.43,1.54,1.04,2.03,1.84,.49,.8,.74,1.74,.74,2.8,0,1.14-.27,2.26-.81,3.35-.54,1.09-1.34,2.25-2.41,3.47-1.06,1.22-2.59,2.81-4.58,4.78h7.92Z"/><path d="M351.5,161.6c-1.14-1.65-1.71-4.06-1.71-7.24,0-2.38,.34-4.3,1.03-5.76,.69-1.46,1.56-2.49,2.62-3.1,1.06-.61,2.21-.91,3.45-.91,1.43,0,2.64,.38,3.64,1.15,1,.76,1.75,1.88,2.28,3.33,.52,1.46,.78,3.23,.78,5.32,0,2.42-.33,4.35-1,5.79-.67,1.44-1.52,2.45-2.57,3.03s-2.21,.87-3.51,.87c-2.2,0-3.88-.83-5.02-2.48Zm7.54-.51c.62-.52,1.08-1.33,1.38-2.44,.3-1.1,.45-2.53,.45-4.29,0-2.53-.35-4.43-1.04-5.68-.7-1.26-1.71-1.89-3.04-1.89-1.41,0-2.48,.62-3.19,1.86-.72,1.24-1.07,3.14-1.07,5.71s.35,4.47,1.04,5.68c.7,1.22,1.73,1.83,3.1,1.83,.97,0,1.76-.26,2.38-.78Z"/><path d="M365.3,167.24c.91-1.26,1.36-2.2,1.36-2.84,0-.17-.04-.31-.13-.42-.09-.11-.22-.23-.39-.36-.25-.19-.44-.38-.57-.57-.13-.18-.19-.47-.19-.86,0-.5,.18-.93,.54-1.29,.36-.36,.8-.54,1.32-.54s.94,.19,1.3,.57,.55,.92,.55,1.64c0,1.64-.79,3.46-2.38,5.45l-1.42-.78Z"/><path d="M372.61,161.6c-1.14-1.65-1.71-4.06-1.71-7.24,0-2.38,.34-4.3,1.03-5.76,.69-1.46,1.56-2.49,2.62-3.1,1.06-.61,2.21-.91,3.45-.91,1.43,0,2.64,.38,3.64,1.15,1,.76,1.75,1.88,2.28,3.33,.52,1.46,.78,3.23,.78,5.32,0,2.42-.33,4.35-1,5.79-.67,1.44-1.52,2.45-2.57,3.03s-2.21,.87-3.51,.87c-2.2,0-3.88-.83-5.02-2.48Zm7.54-.51c.62-.52,1.08-1.33,1.38-2.44,.3-1.1,.45-2.53,.45-4.29,0-2.53-.35-4.43-1.04-5.68-.7-1.26-1.71-1.89-3.04-1.89-1.41,0-2.48,.62-3.19,1.86-.72,1.24-1.07,3.14-1.07,5.71s.35,4.47,1.04,5.68c.7,1.22,1.73,1.83,3.1,1.83,.97,0,1.76-.26,2.38-.78Z"/><path d="M388.27,161.6c-1.14-1.65-1.71-4.06-1.71-7.24,0-2.38,.34-4.3,1.03-5.76,.69-1.46,1.56-2.49,2.62-3.1,1.06-.61,2.21-.91,3.45-.91,1.43,0,2.64,.38,3.64,1.15,1,.76,1.75,1.88,2.28,3.33,.52,1.46,.78,3.23,.78,5.32,0,2.42-.33,4.35-1,5.79-.67,1.44-1.52,2.45-2.57,3.03s-2.21,.87-3.51,.87c-2.2,0-3.88-.83-5.02-2.48Zm7.54-.51c.62-.52,1.08-1.33,1.38-2.44,.3-1.1,.45-2.53,.45-4.29,0-2.53-.35-4.43-1.04-5.68-.7-1.26-1.71-1.89-3.04-1.89-1.41,0-2.48,.62-3.19,1.86-.72,1.24-1.07,3.14-1.07,5.71s.35,4.47,1.04,5.68c.7,1.22,1.73,1.83,3.1,1.83,.97,0,1.76-.26,2.38-.78Z"/><path d="M403.93,161.6c-1.14-1.65-1.71-4.06-1.71-7.24,0-2.38,.34-4.3,1.03-5.76,.69-1.46,1.56-2.49,2.62-3.1,1.06-.61,2.21-.91,3.45-.91,1.43,0,2.64,.38,3.64,1.15,1,.76,1.75,1.88,2.28,3.33,.52,1.46,.78,3.23,.78,5.32,0,2.42-.33,4.35-1,5.79-.67,1.44-1.52,2.45-2.57,3.03s-2.21,.87-3.51,.87c-2.2,0-3.88-.83-5.02-2.48Zm7.54-.51c.62-.52,1.08-1.33,1.38-2.44,.3-1.1,.45-2.53,.45-4.29,0-2.53-.35-4.43-1.04-5.68-.7-1.26-1.71-1.89-3.04-1.89-1.41,0-2.48,.62-3.19,1.86-.72,1.24-1.07,3.14-1.07,5.71s.35,4.47,1.04,5.68c.7,1.22,1.73,1.83,3.1,1.83,.97,0,1.76-.26,2.38-.78Z"/><path d="M429.84,146.41c-.36,.47-.54,1.15-.54,2.02v2.61h3.94l-.26,1.97h-3.68v10.73h-2.49v-10.73h-2.32v-1.97h2.32v-2.55c0-.97,.18-1.82,.55-2.55,.37-.73,.89-1.3,1.58-1.71,.69-.41,1.49-.61,2.42-.61,1.06,0,2.04,.16,2.93,.49l-.64,1.97c-.72-.25-1.44-.38-2.18-.38s-1.28,.24-1.64,.71Z"/><path d="M445.22,157.82h-8.84c.02,1.45,.37,2.5,1.06,3.16,.69,.66,1.57,.99,2.65,.99,.77,0,1.44-.1,2.02-.29,.57-.19,1.2-.49,1.9-.9l.96,1.77c-1.59,1.02-3.25,1.54-4.99,1.54-1.86,0-3.34-.52-4.45-1.55-1.11-1.03-1.67-2.67-1.67-4.92,0-1.28,.23-2.44,.7-3.48s1.16-1.88,2.07-2.51c.92-.63,2.04-.94,3.38-.94,1.12,0,2.08,.23,2.87,.68,.79,.45,1.39,1.08,1.8,1.87,.41,.79,.61,1.7,.61,2.73l-.06,1.86Zm-7.58-4.29c-.57,.6-.94,1.42-1.12,2.46h6.32v-.12c0-1.08-.25-1.89-.74-2.44-.49-.54-1.19-.81-2.1-.81-1.01,0-1.79,.3-2.36,.9Z"/><path d="M458.68,157.82h-8.84c.02,1.45,.37,2.5,1.06,3.16,.69,.66,1.57,.99,2.65,.99,.77,0,1.44-.1,2.02-.29,.57-.19,1.2-.49,1.9-.9l.96,1.77c-1.59,1.02-3.25,1.54-4.99,1.54-1.86,0-3.34-.52-4.45-1.55-1.11-1.03-1.67-2.67-1.67-4.92,0-1.28,.23-2.44,.7-3.48s1.16-1.88,2.07-2.51c.92-.63,2.04-.94,3.38-.94,1.12,0,2.08,.23,2.87,.68,.79,.45,1.39,1.08,1.8,1.87,.41,.79,.61,1.7,.61,2.73l-.06,1.86Zm-7.58-4.29c-.57,.6-.94,1.42-1.12,2.46h6.32v-.12c0-1.08-.25-1.89-.74-2.44-.49-.54-1.19-.81-2.1-.81-1.01,0-1.79,.3-2.36,.9Z"/><path d="M469.5,163.27c-1.01,.54-2.07,.81-3.19,.81-1.2,0-2.15-.34-2.84-1.03-.7-.69-1.04-1.72-1.04-3.09v-6.96h-2.55v-1.97h2.55v-2.87l2.49-.41v3.28h4.29l-.26,1.97h-4.03v6.55c0,1.62,.6,2.44,1.8,2.44,.35,0,.69-.04,1.02-.12,.33-.08,.69-.2,1.07-.38l.7,1.77Z"/><path d="M472.31,163.78c-.29-.16-.52-.39-.68-.67-.16-.28-.25-.58-.25-.91s.08-.63,.25-.91c.16-.28,.39-.5,.68-.67,.29-.16,.6-.25,.93-.25s.64,.08,.93,.25c.29,.16,.52,.39,.68,.67,.16,.28,.25,.58,.25,.91s-.08,.63-.25,.91c-.16,.28-.39,.5-.68,.67s-.6,.25-.93,.25-.64-.08-.93-.25Z"/></svg>